<svg id="kity_svg_6" xmlns="http://www.w3.org/2000/svg" xmlns:xlink="http://www.w3.org/1999/xlink" version="1.1" width="430" height="246" style="background: rgb(251, 251, 251); visibility: visible;" viewBox="0 0 430 246"><defs id="kity_defs_7"><linearGradient id="kity_linearGradient_17" x1="0" y1="0" x2="0" y2="1"><stop id="kity_stop_18" offset="0" stop-color="rgb(255, 255, 255)"></stop><stop id="kity_stop_19" offset="1" stop-color="rgb(204, 204, 204)"></stop></linearGradient><marker id="kity_marker_2" orient="auto" refX="6" refY="0" viewBox="-7 -7 14 14" markerWidth="7" markerHeight="7" markerUnits="userSpaceOnUse"><path id="kity_path_3" fill="rgb(115, 161, 191)" stroke="none" d="M6,0A6,6,0,1,1,-6,0A6,6,0,1,1,6,0"></path></marker></defs><g id="kity_g_8"><g id="minder1" text-rendering="optimize-speed"><g id="minder_connect_group1"><path id="kity_path_31" fill="none" stroke="rgb(115, 161, 191)" stroke-width="1" d="M66.00000632554293,135.50000397115946A163.5,78,0,0,1,229.50000632554293,57.50000397115946"></path><path id="kity_path_39" fill="none" stroke="rgb(115, 161, 191)" stroke-width="1" d="M66.00000632554293,135.50000397115946A163.5,12,0,0,0,229.50000632554293,147.50000397115946"></path><path id="kity_path_47" fill="none" stroke="rgb(115, 161, 191)" stroke-width="1" d="M66.00000632554293,135.50000397115946A163.5,78,0,0,0,229.50000632554293,213.50000397115946"></path><path id="kity_path_55" fill="none" stroke="rgb(115, 161, 191)" stroke-width="1" d="M312.5000063255429,57.50000397115946C332.5000063255429,57.50000397115946,332.5000063255429,31.500003971159458,352.5000063255429,31.500003971159458"></path><path id="kity_path_63" fill="none" stroke="rgb(115, 161, 191)" stroke-width="1" d="M312.5000063255429,57.50000397115946C332.5000063255429,57.50000397115946,332.5000063255429,83.50000397115946,352.5000063255429,83.50000397115946"></path></g><g id="minder_node1"><path id="node_outline1" fill="rgb(115, 161, 191)" stroke="rgb(115, 161, 191)" d="M25.500006325542927,115.50000397115946h81a5,5,0,0,1,5,5v30a5,5,0,0,1,-5,5h-81a5,5,0,0,1,-5,-5v-30a5,5,0,0,1,5,-5z" stroke-width="3"></path><g id="node_text1" fill="white"><text id="kity_text_22" text-rendering="inherit" font-size="16" dy=".8em" y="125.10000393539667" x="44.50000632554293">scene</text></g></g><g id="kity_g_12" display="none"><path id="kity_path_13" fill="none" stroke="none" d="M44.50000632554293,135.50000397115946h0v0h0z"></path></g><g id="kity_g_14" display="none"><path id="kity_path_15" fill="rgba(0, 92, 153, 0.5)" stroke="none" d="M231.50000632554293,75.50000397115946h81v20h-81z"></path><path id="kity_path_16" fill="none" stroke="rgb(0, 76, 128)" d="M231.50000632554293,75.50000397115946L312.5000063255429,75.50000397115946" stroke-width="1"></path></g><g id="minder_node2"><g id="node_expander1" style="cursor: pointer;"><path id="kity_path_36" fill="white" stroke="gray" d="M230.50000900775194,57.500002808868885A6,6,0,1,1,218.50000900775194,57.500002808868885A6,6,0,1,1,230.50000900775194,57.500002808868885"></path><path id="kity_path_37" fill="none" stroke="gray" d="M220.00000900775194,57.500002808868885L229.00000900775194,57.500002808868885"></path></g><path id="node_outline2" fill="rgb(238, 243, 246)" stroke="rgb(115, 161, 191)" d="M234.5000094100833,44.500002808868885h75a3,3,0,0,1,3,3v20a3,3,0,0,1,-3,3h-75a3,3,0,0,1,-3,-3v-20a3,3,0,0,1,3,-3z" stroke-width="1"></path><g id="node_text2" fill="black"><text id="kity_text_33" text-rendering="inherit" font-size="14" dy=".8em" y="48.40000277757645" x="251.5000094100833">group</text></g></g><g id="minder_node3" opacity="1"><g id="node_expander2" style="cursor: pointer;" display="none"><path id="kity_path_44" fill="white" stroke="gray" d="M230.50000900775194,147.5000041499734A6,6,0,1,1,218.50000900775194,147.5000041499734A6,6,0,1,1,230.50000900775194,147.5000041499734"></path><path id="kity_path_45" fill="none" stroke="gray"></path></g><path id="node_outline3" fill="rgb(238, 243, 246)" stroke="rgb(115, 161, 191)" d="M234.5000094100833,134.5000041499734h141a3,3,0,0,1,3,3v20a3,3,0,0,1,-3,3h-141a3,3,0,0,1,-3,-3v-20a3,3,0,0,1,3,-3z" stroke-width="1"></path><g id="node_text3" fill="black"><text id="kity_text_41" text-rendering="inherit" font-size="14" dy=".8em" y="138.40000411868095" x="251.5000094100833">DirectionalLight</text></g></g><g id="minder_node4" opacity="1"><g id="node_expander3" style="cursor: pointer;" display="none"><path id="kity_path_52" fill="white" stroke="gray" d="M230.50000900775194,213.50000513345003A6,6,0,1,1,218.50000900775194,213.50000513345003A6,6,0,1,1,230.50000900775194,213.50000513345003"></path><path id="kity_path_53" fill="none" stroke="gray"></path></g><path id="node_outline4" fill="rgb(238, 243, 246)" stroke="rgb(115, 161, 191)" d="M234.5000094100833,200.50000513345003h126a3,3,0,0,1,3,3v20a3,3,0,0,1,-3,3h-126a3,3,0,0,1,-3,-3v-20a3,3,0,0,1,3,-3z" stroke-width="1"></path><g id="node_text4" fill="black"><text id="kity_text_49" text-rendering="inherit" font-size="14" dy=".8em" y="204.4000051021576" x="251.5000094100833">AmbientLight</text></g></g><g id="minder_node5"><g id="node_expander4" style="cursor: pointer;" display="none"><path id="kity_path_60" fill="white" stroke="gray" d="M352.5000108256936,31.500002421438694A6,6,0,1,1,340.5000108256936,31.500002421438694A6,6,0,1,1,352.5000108256936,31.500002421438694"></path><path id="kity_path_61" fill="none" stroke="gray"></path></g><path id="node_outline5" fill="none" stroke="none" d="M357.5000110641122,20.500002421438694h48a5,5,0,0,1,5,5v12a5,5,0,0,1,-5,5h-48a5,5,0,0,1,-5,-5v-12a5,5,0,0,1,5,-5z" stroke-width="3"></path><g id="node_text5" fill="black"><text id="kity_text_57" text-rendering="inherit" font-size="12" dy=".8em" y="23.700002394616604" x="362.5000110641122">mesh1</text></g></g><g id="minder_node6"><g id="node_expander5" style="cursor: pointer;" display="none"><path id="kity_path_68" fill="white" stroke="gray" d="M352.5000108256936,83.50000319629908A6,6,0,1,1,340.5000108256936,83.50000319629908A6,6,0,1,1,352.5000108256936,83.50000319629908"></path><path id="kity_path_69" fill="none" stroke="gray"></path></g><path id="node_outline6" fill="none" stroke="none" d="M357.5000110641122,72.50000319629908h48a5,5,0,0,1,5,5v12a5,5,0,0,1,-5,5h-48a5,5,0,0,1,-5,-5v-12a5,5,0,0,1,5,-5z" stroke-width="3"></path><g id="node_text6" fill="black"><text id="kity_text_65" text-rendering="inherit" font-size="12" dy=".8em" y="75.70000316947699" x="362.5000110641122">mesh2</text></g></g></g></g></svg>