<svg id="kity_svg_6" xmlns="http://www.w3.org/2000/svg" xmlns:xlink="http://www.w3.org/1999/xlink" version="1.1" width="448" height="264" style="background: rgb(251, 251, 251); visibility: visible;" viewBox="0 0 448 264"><defs id="kity_defs_7"><linearGradient id="kity_linearGradient_17" x1="0" y1="0" x2="0" y2="1"><stop id="kity_stop_18" offset="0" stop-color="rgb(255, 255, 255)"></stop><stop id="kity_stop_19" offset="1" stop-color="rgb(204, 204, 204)"></stop></linearGradient><marker id="kity_marker_2" orient="auto" refX="6" refY="0" viewBox="-7 -7 14 14" markerWidth="7" markerHeight="7" markerUnits="userSpaceOnUse"><path id="kity_path_3" fill="rgb(115, 161, 191)" stroke="none" d="M6,0A6,6,0,1,1,-6,0A6,6,0,1,1,6,0"></path></marker></defs><g id="kity_g_8"><g id="minder1" text-rendering="optimize-speed"><g id="minder_connect_group1"><path id="kity_path_31" fill="none" stroke="rgb(115, 161, 191)" stroke-width="1" d="M61.5,132.5A130,99,0,0,1,191.5,33.5"></path><path id="kity_path_33" fill="none" stroke="rgb(115, 161, 191)" stroke-width="1" d="M61.5,132.5A130,99,0,0,0,191.5,231.5"></path><path id="kity_path_35" fill="none" stroke="rgb(115, 161, 191)" stroke-width="1" d="M61.5,132.5A130,33,0,0,1,191.5,99.5"></path><path id="kity_path_37" fill="none" stroke="rgb(115, 161, 191)" stroke-width="1" d="M61.5,132.5A130,33,0,0,0,191.5,165.5"></path><path id="kity_path_144" fill="none" stroke="rgb(115, 161, 191)" stroke-width="1" d="M277.5,33.5C297.5,33.5,297.5,33.5,317.5,33.5"></path><path id="kity_path_145" fill="none" stroke="rgb(115, 161, 191)" stroke-width="1" d="M277.5,99.5C297.5,99.5,297.5,99.5,317.5,99.5"></path><path id="kity_path_146" fill="none" stroke="rgb(115, 161, 191)" stroke-width="1" d="M305.5,165.5C325.5,165.5,325.5,165.5,345.5,165.5"></path><path id="kity_path_147" fill="none" stroke="rgb(115, 161, 191)" stroke-width="1" d="M276.5,231.5C296.5,231.5,296.5,231.5,316.5,231.5"></path></g><g id="minder_node1"><path id="node_outline1" fill="rgb(115, 161, 191)" stroke="rgb(115, 161, 191)" d="M25.5,112.5h72a5,5,0,0,1,5,5v30a5,5,0,0,1,-5,5h-72a5,5,0,0,1,-5,-5v-30a5,5,0,0,1,5,-5z" stroke-width="3"></path><g id="node_text1" fill="white"><text id="kity_text_22" text-rendering="inherit" font-size="16" dy=".8em" y="122.09999990463257" x="44.5">光源</text></g></g><g id="kity_g_14" display="none"><path id="kity_path_15" fill="rgba(0, 92, 153, 0.5)" stroke="none" d="M222.5,51.5h84v20h-84z"></path><path id="kity_path_16" fill="none" stroke="rgb(0, 76, 128)" d="M222.5,51.5L306.5,51.5" stroke-width="1"></path></g><g id="minder_node2" opacity="1"><g id="node_expander1" style="cursor: pointer;"><path id="kity_path_101" fill="white" stroke="gray" d="M192.5,33.5A6,6,0,1,1,180.5,33.5A6,6,0,1,1,192.5,33.5"></path><path id="kity_path_102" fill="none" stroke="gray" d="M182,33.5L191,33.5"></path></g><path id="node_outline2" fill="rgb(238, 243, 246)" stroke="rgb(115, 161, 191)" d="M196.5,20.5h78a3,3,0,0,1,3,3v20a3,3,0,0,1,-3,3h-78a3,3,0,0,1,-3,-3v-20a3,3,0,0,1,3,-3z" stroke-width="1"></path><g id="node_text2" fill="black"><text id="kity_text_59" text-rendering="inherit" font-size="14" dy=".8em" y="24.40000009536743" x="213.5">环境光</text></g></g><g id="minder_node3" opacity="1"><g id="node_expander2" style="cursor: pointer;"><path id="kity_path_104" fill="white" stroke="gray" d="M192.5,231.5A6,6,0,1,1,180.5,231.5A6,6,0,1,1,192.5,231.5"></path><path id="kity_path_105" fill="none" stroke="gray" d="M182,231.5L191,231.5"></path></g><path id="node_outline3" fill="rgb(238, 243, 246)" stroke="rgb(115, 161, 191)" d="M196.5,218.5h77a3,3,0,0,1,3,3v20a3,3,0,0,1,-3,3h-77a3,3,0,0,1,-3,-3v-20a3,3,0,0,1,3,-3z" stroke-width="1"></path><g id="node_text3" fill="black"><text id="kity_text_61" text-rendering="inherit" font-size="14" dy=".8em" y="222.40000009536743" x="213.5">平行光</text></g></g><g id="minder_node4" opacity="1"><g id="node_expander3" style="cursor: pointer;"><path id="kity_path_107" fill="white" stroke="gray" d="M192.5,99.5A6,6,0,1,1,180.5,99.5A6,6,0,1,1,192.5,99.5"></path><path id="kity_path_108" fill="none" stroke="gray" d="M182,99.5L191,99.5"></path></g><path id="node_outline4" fill="rgb(238, 243, 246)" stroke="rgb(115, 161, 191)" d="M196.5,86.5h78a3,3,0,0,1,3,3v20a3,3,0,0,1,-3,3h-78a3,3,0,0,1,-3,-3v-20a3,3,0,0,1,3,-3z" stroke-width="1"></path><g id="node_text4" fill="black"><text id="kity_text_63" text-rendering="inherit" font-size="14" dy=".8em" y="90.40000009536743" x="213.5">点光源</text></g></g><g id="minder_node5" opacity="1"><g id="node_expander4" style="cursor: pointer;"><path id="kity_path_110" fill="white" stroke="gray" d="M192.5,165.5A6,6,0,1,1,180.5,165.5A6,6,0,1,1,192.5,165.5"></path><path id="kity_path_111" fill="none" stroke="gray" d="M182,165.5L191,165.5"></path></g><path id="node_outline5" fill="rgb(238, 243, 246)" stroke="rgb(115, 161, 191)" d="M196.5,152.5h106a3,3,0,0,1,3,3v20a3,3,0,0,1,-3,3h-106a3,3,0,0,1,-3,-3v-20a3,3,0,0,1,3,-3z" stroke-width="1"></path><g id="node_text5" fill="black"><text id="kity_text_65" text-rendering="inherit" font-size="14" dy=".8em" y="156.40000009536743" x="213.5">聚光灯光源</text></g></g><g id="kity_g_12" display="none"><path id="kity_path_13" fill="none" stroke="rgb(66, 94, 112)" d="M225.5,86.5h77a3,3,0,0,1,3,3v20a3,3,0,0,1,-3,3h-77a3,3,0,0,1,-3,-3v-20a3,3,0,0,1,3,-3z" stroke-width="5"></path></g><g id="minder_node7" opacity="1"><g id="node_expander6" style="cursor: pointer;" display="none"><path id="kity_path_116" fill="white" stroke="gray" d="M317.5,33.5A6,6,0,1,1,305.5,33.5A6,6,0,1,1,317.5,33.5"></path><path id="kity_path_117" fill="none" stroke="gray"></path></g><path id="node_outline7" fill="none" stroke="none" d="M322.5,22.5h90a5,5,0,0,1,5,5v12a5,5,0,0,1,-5,5h-90a5,5,0,0,1,-5,-5v-12a5,5,0,0,1,5,-5z" stroke-width="3"></path><g id="node_text7" fill="black"><text id="kity_text_69" text-rendering="inherit" font-size="12" dy=".8em" y="25.700000047683716" x="327.5">AmbientLight</text></g></g><g id="minder_node14" opacity="1"><g id="node_expander13" style="cursor: pointer;" display="none"><path id="kity_path_137" fill="white" stroke="gray" d="M317.5,99.5A6,6,0,1,1,305.5,99.5A6,6,0,1,1,317.5,99.5"></path><path id="kity_path_138" fill="none" stroke="gray"></path></g><path id="node_outline14" fill="none" stroke="none" d="M322.5,88.5h69a5,5,0,0,1,5,5v12a5,5,0,0,1,-5,5h-69a5,5,0,0,1,-5,-5v-12a5,5,0,0,1,5,-5z" stroke-width="3"></path><g id="node_text14" fill="black"><text id="kity_text_83" text-rendering="inherit" font-size="12" dy=".8em" y="91.70000004768372" x="327.5">PointLight</text></g></g><g id="minder_node15" opacity="1"><g id="node_expander14" style="cursor: pointer;" display="none"><path id="kity_path_140" fill="white" stroke="gray" d="M345.5,165.5A6,6,0,1,1,333.5,165.5A6,6,0,1,1,345.5,165.5"></path><path id="kity_path_141" fill="none" stroke="gray"></path></g><path id="node_outline15" fill="none" stroke="none" d="M350.5,154.5h66a5,5,0,0,1,5,5v12a5,5,0,0,1,-5,5h-66a5,5,0,0,1,-5,-5v-12a5,5,0,0,1,5,-5z" stroke-width="3"></path><g id="node_text15" fill="black"><text id="kity_text_85" text-rendering="inherit" font-size="12" dy=".8em" y="157.70000004768372" x="355.5">SpotLight</text></g></g><g id="minder_node13" opacity="1"><g id="node_expander12" style="cursor: pointer;" display="none"><path id="kity_path_134" fill="white" stroke="gray" d="M316.5,231.5A6,6,0,1,1,304.5,231.5A6,6,0,1,1,316.5,231.5"></path><path id="kity_path_135" fill="none" stroke="gray"></path></g><path id="node_outline13" fill="none" stroke="none" d="M321.5,220.5h102a5,5,0,0,1,5,5v12a5,5,0,0,1,-5,5h-102a5,5,0,0,1,-5,-5v-12a5,5,0,0,1,5,-5z" stroke-width="3"></path><g id="node_text13" fill="black"><text id="kity_text_81" text-rendering="inherit" font-size="12" dy=".8em" y="223.70000004768372" x="326.5">DirectionalLight</text></g></g></g></g></svg>