<svg id="kity_svg_6" xmlns="http://www.w3.org/2000/svg" xmlns:xlink="http://www.w3.org/1999/xlink" version="1.1" width="549" height="432" style="background: rgb(251, 251, 251); visibility: visible;" viewBox="0 0 549 432"><defs id="kity_defs_7"><linearGradient id="kity_linearGradient_17" x1="0" y1="0" x2="0" y2="1"><stop id="kity_stop_18" offset="0" stop-color="rgb(255, 255, 255)"></stop><stop id="kity_stop_19" offset="1" stop-color="rgb(204, 204, 204)"></stop></linearGradient><marker id="kity_marker_2" orient="auto" refX="6" refY="0" viewBox="-7 -7 14 14" markerWidth="7" markerHeight="7" markerUnits="userSpaceOnUse"><path id="kity_path_3" fill="rgb(115, 161, 191)" stroke="none" d="M6,0A6,6,0,1,1,-6,0A6,6,0,1,1,6,0"></path></marker></defs><g id="kity_g_8"><g id="minder1" text-rendering="optimize-speed"><g id="minder_connect_group1"><path id="kity_path_31" fill="none" stroke="rgb(115, 161, 191)" stroke-width="1" d="M107.50000830739737,217.5000046417117A143,181,0,0,1,250.50000830739737,36.50000464171171"></path><path id="kity_path_33" fill="none" stroke="rgb(115, 161, 191)" stroke-width="1" d="M107.50000830739737,217.5000046417117A143,109,0,0,1,250.50000830739737,108.50000464171171"></path><path id="kity_path_35" fill="none" stroke="rgb(115, 161, 191)" stroke-width="1" d="M107.50000830739737,217.5000046417117A143,37,0,0,1,250.50000830739737,180.5000046417117"></path><path id="kity_path_37" fill="none" stroke="rgb(115, 161, 191)" stroke-width="1" d="M107.50000830739737,217.5000046417117A143,35,0,0,0,250.50000830739737,252.5000046417117"></path><path id="kity_path_104" fill="none" stroke="rgb(115, 161, 191)" stroke-width="1" d="M107.50000830739737,217.5000046417117A143,107,0,0,0,250.50000830739737,324.5000046417117"></path><path id="kity_path_108" fill="none" stroke="rgb(115, 161, 191)" stroke-width="1" d="M107.50000830739737,217.5000046417117A143,179,0,0,0,250.50000830739737,396.5000046417117"></path><path id="kity_path_243" fill="none" stroke="rgb(115, 161, 191)" stroke-width="1" d="M335.50000830739737,36.50000464171171C355.50000830739737,36.50000464171171,355.50000830739737,36.50000464171171,375.50000830739737,36.50000464171171"></path><path id="kity_path_244" fill="none" stroke="rgb(115, 161, 191)" stroke-width="1" d="M335.50000830739737,108.50000464171171C355.50000830739737,108.50000464171171,355.50000830739737,108.50000464171171,375.50000830739737,108.50000464171171"></path><path id="kity_path_245" fill="none" stroke="rgb(115, 161, 191)" stroke-width="1" d="M322.50000830739737,180.5000046417117C342.50000830739737,180.5000046417117,342.50000830739737,180.5000046417117,362.50000830739737,180.5000046417117"></path><path id="kity_path_246" fill="none" stroke="rgb(115, 161, 191)" stroke-width="1" d="M320.50000830739737,252.5000046417117C340.50000830739737,252.5000046417117,340.50000830739737,252.5000046417117,360.50000830739737,252.5000046417117"></path><path id="kity_path_247" fill="none" stroke="rgb(115, 161, 191)" stroke-width="1" d="M349.50000830739737,324.5000046417117C369.50000830739737,324.5000046417117,369.50000830739737,324.5000046417117,389.50000830739737,324.5000046417117"></path><path id="kity_path_248" fill="none" stroke="rgb(115, 161, 191)" stroke-width="1" d="M334.50000830739737,396.5000046417117C354.50000830739737,396.5000046417117,354.50000830739737,396.5000046417117,374.50000830739737,396.5000046417117"></path></g><g id="minder_node1"><path id="node_outline1" fill="rgb(115, 161, 191)" stroke="rgb(115, 161, 191)" d="M25.500008307397366,197.5000046417117h164a5,5,0,0,1,5,5v30a5,5,0,0,1,-5,5h-164a5,5,0,0,1,-5,-5v-30a5,5,0,0,1,5,-5z" stroke-width="3"></path><g id="node_text1" fill="white"><text id="kity_text_22" text-rendering="inherit" font-size="16" dy=".8em" y="207.10000460594893" x="44.500008307397366">几何体Geometry</text></g></g><g id="kity_g_14" display="none"><path id="kity_path_15" fill="rgba(0, 92, 153, 0.5)" stroke="none" d="M297.50000830739737,602.5000046417117h82v20h-82z"></path><path id="kity_path_16" fill="none" stroke="rgb(0, 76, 128)" d="M297.50000830739737,602.5000046417117L379.50000830739737,602.5000046417117" stroke-width="1"></path></g><g id="minder_node2" opacity="1"><g id="node_expander1" style="cursor: pointer;"><path id="kity_path_71" fill="white" stroke="gray" d="M251.50001130253077,36.500001944601536A6,6,0,1,1,239.50001130253077,36.500001944601536A6,6,0,1,1,251.50001130253077,36.500001944601536"></path><path id="kity_path_72" fill="none" stroke="gray" d="M241.00001130253077,36.500001944601536L250.00001130253077,36.500001944601536"></path></g><path id="node_outline2" fill="rgb(238, 243, 246)" stroke="rgb(115, 161, 191)" d="M255.50001170486212,23.500001944601536h77a3,3,0,0,1,3,3v20a3,3,0,0,1,-3,3h-77a3,3,0,0,1,-3,-3v-20a3,3,0,0,1,3,-3z" stroke-width="1"></path><g id="node_text2" fill="black"><text id="kity_text_47" text-rendering="inherit" font-size="14" dy=".8em" y="27.400001913309097" x="272.5000117048621">长方体</text></g><a id="kity_a_94" xlink:href="https://threejs.org/docs/index.html?q=geo#api/zh/geometries/BoxGeometry" target="_blank" xlink:title="https://threejs.org/docs/index.html?q=geo#api/zh/geometries/BoxGeometry" style="cursor: pointer;" display="none"><path id="kity_path_96" fill="rgba(255, 255, 255, 0)" stroke="none" d="M274.5000117048621,30.500001944601536h16a4,4,0,0,1,4,4v14a4,4,0,0,1,-4,4h-16a4,4,0,0,1,-4,-4v-14a4,4,0,0,1,4,-4z"></path><path id="kity_path_95" fill="#666" stroke="none" d="M289.1140117048621,46.72400194460154h-1.278c-1.668,0,-3.07,-1.07,-3.599,-2.556h4.877c0.707,0,1.278,-0.571,1.278,-1.278V40.33400194460154c0,-0.707,-0.571,-1.278,-1.278,-1.278h-4.877C284.76601170486214,37.571001944601534,286.1680117048621,36.500001944601536,287.83601170486213,36.500001944601536h1.278c2.116,0,3.834,1.716,3.834,3.834V42.890001944601536C292.9480117048621,45.00800194460153,291.23001170486214,46.72400194460154,289.1140117048621,46.72400194460154zM277.61201170486214,41.61200194460154c0,-0.707,0.573,-1.278,1.278,-1.278h7.668c0.707,0,1.278,0.571,1.278,1.278S287.2650117048621,42.890001944601536,286.5580117048621,42.890001944601536H278.8900117048621C278.1850117048621,42.890001944601536,277.61201170486214,42.31900194460154,277.61201170486214,41.61200194460154zM275.0560117048621,40.33400194460154V42.890001944601536c0,0.707,0.573,1.278,1.278,1.278h4.877c-0.528,1.486,-1.932,2.556,-3.599,2.556H276.3340117048621C274.2160117048621,46.72400194460154,272.5000117048621,45.00800194460153,272.5000117048621,42.890001944601536V40.33400194460154C272.5000117048621,38.21600194460154,274.2160117048621,36.500001944601536,276.3340117048621,36.500001944601536h1.278c1.667,0,3.071,1.071,3.599,2.556H276.3340117048621C275.62901170486214,39.05600194460153,275.0560117048621,39.62700194460154,275.0560117048621,40.33400194460154z"></path></a></g><g id="minder_node3" opacity="1"><g id="node_expander2" style="cursor: pointer;"><path id="kity_path_74" fill="white" stroke="gray" d="M251.50001130253077,108.50000301748514A6,6,0,1,1,239.50001130253077,108.50000301748514A6,6,0,1,1,251.50001130253077,108.50000301748514"></path><path id="kity_path_75" fill="none" stroke="gray" d="M241.00001130253077,108.50000301748514L250.00001130253077,108.50000301748514"></path></g><path id="node_outline3" fill="rgb(238, 243, 246)" stroke="rgb(115, 161, 191)" d="M255.50001170486212,95.50000301748514h77a3,3,0,0,1,3,3v20a3,3,0,0,1,-3,3h-77a3,3,0,0,1,-3,-3v-20a3,3,0,0,1,3,-3z" stroke-width="1"></path><g id="node_text3" fill="black"><text id="kity_text_49" text-rendering="inherit" font-size="14" dy=".8em" y="99.4000029861927" x="272.5000117048621">圆柱体</text></g></g><g id="minder_node4" opacity="1"><g id="node_expander3" style="cursor: pointer;"><path id="kity_path_77" fill="white" stroke="gray" d="M251.50001130253077,180.50000409036875A6,6,0,1,1,239.50001130253077,180.50000409036875A6,6,0,1,1,251.50001130253077,180.50000409036875"></path><path id="kity_path_78" fill="none" stroke="gray" d="M241.00001130253077,180.50000409036875L250.00001130253077,180.50000409036875"></path></g><path id="node_outline4" fill="rgb(238, 243, 246)" stroke="rgb(115, 161, 191)" d="M255.50001170486212,167.50000409036875h64a3,3,0,0,1,3,3v20a3,3,0,0,1,-3,3h-64a3,3,0,0,1,-3,-3v-20a3,3,0,0,1,3,-3z" stroke-width="1"></path><g id="node_text4" fill="black"><text id="kity_text_51" text-rendering="inherit" font-size="14" dy=".8em" y="171.4000040590763" x="272.5000117048621">球体</text></g></g><g id="minder_node5" opacity="1"><g id="node_expander4" style="cursor: pointer;"><path id="kity_path_80" fill="white" stroke="gray" d="M251.50001130253077,252.50000516325235A6,6,0,1,1,239.50001130253077,252.50000516325235A6,6,0,1,1,251.50001130253077,252.50000516325235"></path><path id="kity_path_81" fill="none" stroke="gray" d="M241.00001130253077,252.50000516325235L250.00001130253077,252.50000516325235"></path></g><path id="node_outline5" fill="rgb(238, 243, 246)" stroke="rgb(115, 161, 191)" d="M255.50001170486212,239.50000516325235h62a3,3,0,0,1,3,3v20a3,3,0,0,1,-3,3h-62a3,3,0,0,1,-3,-3v-20a3,3,0,0,1,3,-3z" stroke-width="1"></path><g id="node_text5" fill="black"><text id="kity_text_53" text-rendering="inherit" font-size="14" dy=".8em" y="243.40000513195992" x="272.5000117048621">圆锥</text></g></g><g id="minder_node13" opacity="1"><g id="node_expander12" style="cursor: pointer;"><path id="kity_path_142" fill="white" stroke="gray" d="M251.50001130253077,324.50000623613596A6,6,0,1,1,239.50001130253077,324.50000623613596A6,6,0,1,1,251.50001130253077,324.50000623613596"></path><path id="kity_path_143" fill="none" stroke="gray" d="M241.00001130253077,324.50000623613596L250.00001130253077,324.50000623613596"></path></g><path id="node_outline13" fill="rgb(238, 243, 246)" stroke="rgb(115, 161, 191)" d="M255.50001170486212,311.50000623613596h91a3,3,0,0,1,3,3v20a3,3,0,0,1,-3,3h-91a3,3,0,0,1,-3,-3v-20a3,3,0,0,1,3,-3z" stroke-width="1"></path><g id="node_text13" fill="black"><text id="kity_text_118" text-rendering="inherit" font-size="14" dy=".8em" y="315.4000062048435" x="272.5000117048621">矩形平面</text></g></g><g id="minder_node15" opacity="1"><g id="node_expander14" style="cursor: pointer;"><path id="kity_path_148" fill="white" stroke="gray" d="M251.50001130253077,396.50000730901957A6,6,0,1,1,239.50001130253077,396.50000730901957A6,6,0,1,1,251.50001130253077,396.50000730901957"></path><path id="kity_path_149" fill="none" stroke="gray" d="M241.00001130253077,396.50000730901957L250.00001130253077,396.50000730901957"></path></g><path id="node_outline15" fill="rgb(238, 243, 246)" stroke="rgb(115, 161, 191)" d="M255.50001170486212,383.50000730901957h76a3,3,0,0,1,3,3v20a3,3,0,0,1,-3,3h-76a3,3,0,0,1,-3,-3v-20a3,3,0,0,1,3,-3z" stroke-width="1"></path><g id="node_text15" fill="black"><text id="kity_text_122" text-rendering="inherit" font-size="14" dy=".8em" y="387.4000072777271" x="272.5000117048621">圆平面</text></g></g><g id="kity_g_12" display="none"><path id="kity_path_13" fill="none" stroke="rgb(66, 94, 112)" d="M300.50000830739737,571.5000046417117h76a3,3,0,0,1,3,3v20a3,3,0,0,1,-3,3h-76a3,3,0,0,1,-3,-3v-20a3,3,0,0,1,3,-3z" stroke-width="5"></path></g><g id="minder_node20"><g id="node_expander19" style="cursor: pointer;" display="none"><path id="kity_path_183" fill="white" stroke="gray" d="M375.50001315027475,36.500001944601536A6,6,0,1,1,363.50001315027475,36.500001944601536A6,6,0,1,1,375.50001315027475,36.500001944601536"></path><path id="kity_path_184" fill="none" stroke="gray"></path></g><path id="node_outline20" fill="none" stroke="none" d="M380.50001338869333,20.500001944601536h118a5,5,0,0,1,5,5v22a5,5,0,0,1,-5,5h-118a5,5,0,0,1,-5,-5v-22a5,5,0,0,1,5,-5z" stroke-width="3"></path><g id="node_text20" fill="black"><text id="kity_text_180" text-rendering="inherit" font-size="12" dy=".8em" y="28.700001917779446" x="385.50001338869333">BoxGeometry</text></g><a id="kity_a_185" xlink:href="https://threejs.org/docs/index.html?q=geo#api/zh/geometries/BoxGeometry" target="_blank" xlink:title="https://threejs.org/docs/index.html?q=geo#api/zh/geometries/BoxGeometry" style="cursor: pointer;"><path id="kity_path_187" fill="rgba(255, 255, 255, 0)" stroke="none" d="M473.5000146701932,25.50000187009573h16a4,4,0,0,1,4,4v14a4,4,0,0,1,-4,4h-16a4,4,0,0,1,-4,-4v-14a4,4,0,0,1,4,-4z"></path><path id="kity_path_186" fill="#666" stroke="none" d="M488.11401467019317,41.724001870095734h-1.278c-1.668,0,-3.07,-1.07,-3.599,-2.556h4.877c0.707,0,1.278,-0.571,1.278,-1.278V35.33400187009573c0,-0.707,-0.571,-1.278,-1.278,-1.278h-4.877C483.7660146701932,32.57100187009573,485.1680146701932,31.50000187009573,486.8360146701932,31.50000187009573h1.278c2.116,0,3.834,1.716,3.834,3.834V37.89000187009573C491.9480146701932,40.008001870095725,490.2300146701932,41.724001870095734,488.11401467019317,41.724001870095734zM476.6120146701932,36.61200187009573c0,-0.707,0.573,-1.278,1.278,-1.278h7.668c0.707,0,1.278,0.571,1.278,1.278S486.2650146701932,37.89000187009573,485.5580146701932,37.89000187009573H477.8900146701932C477.1850146701932,37.89000187009573,476.6120146701932,37.31900187009573,476.6120146701932,36.61200187009573zM474.0560146701932,35.33400187009573V37.89000187009573c0,0.707,0.573,1.278,1.278,1.278h4.877c-0.528,1.486,-1.932,2.556,-3.599,2.556H475.3340146701932C473.2160146701932,41.724001870095734,471.5000146701932,40.008001870095725,471.5000146701932,37.89000187009573V35.33400187009573C471.5000146701932,33.21600187009573,473.2160146701932,31.50000187009573,475.3340146701932,31.50000187009573h1.278c1.667,0,3.071,1.071,3.599,2.556H475.3340146701932C474.6290146701932,34.05600187009573,474.0560146701932,34.62700187009573,474.0560146701932,35.33400187009573z"></path></a></g><g id="minder_node19"><g id="node_expander18" style="cursor: pointer;" display="none"><path id="kity_path_175" fill="white" stroke="gray" d="M375.50001315027475,108.50000301748514A6,6,0,1,1,363.50001315027475,108.50000301748514A6,6,0,1,1,375.50001315027475,108.50000301748514"></path><path id="kity_path_176" fill="none" stroke="gray"></path></g><path id="node_outline19" fill="none" stroke="none" d="M380.50001338869333,92.50000301748514h144a5,5,0,0,1,5,5v22a5,5,0,0,1,-5,5h-144a5,5,0,0,1,-5,-5v-22a5,5,0,0,1,5,-5z" stroke-width="3"></path><g id="node_text19" fill="black"><text id="kity_text_172" text-rendering="inherit" font-size="12" dy=".8em" y="100.70000299066305" x="385.50001338869333">CylinderGeometry</text></g><a id="kity_a_188" xlink:href="https://threejs.org/docs/index.html?q=geo#api/zh/geometries/CylinderGeometry" target="_blank" xlink:title="https://threejs.org/docs/index.html?q=geo#api/zh/geometries/CylinderGeometry" style="cursor: pointer;"><path id="kity_path_190" fill="rgba(255, 255, 255, 0)" stroke="none" d="M499.5000150576234,97.50000294297934h16a4,4,0,0,1,4,4v14a4,4,0,0,1,-4,4h-16a4,4,0,0,1,-4,-4v-14a4,4,0,0,1,4,-4z"></path><path id="kity_path_189" fill="#666" stroke="none" d="M514.1140150576234,113.72400294297934h-1.278c-1.668,0,-3.07,-1.07,-3.599,-2.556h4.877c0.707,0,1.278,-0.571,1.278,-1.278V107.33400294297934c0,-0.707,-0.571,-1.278,-1.278,-1.278h-4.877C509.7660150576234,104.57100294297933,511.1680150576234,103.50000294297934,512.8360150576234,103.50000294297934h1.278c2.116,0,3.834,1.716,3.834,3.834V109.89000294297934C517.9480150576234,112.00800294297933,516.2300150576234,113.72400294297934,514.1140150576234,113.72400294297934zM502.6120150576234,108.61200294297933c0,-0.707,0.573,-1.278,1.278,-1.278h7.668c0.707,0,1.278,0.571,1.278,1.278S512.2650150576234,109.89000294297934,511.5580150576234,109.89000294297934H503.8900150576234C503.1850150576234,109.89000294297934,502.6120150576234,109.31900294297934,502.6120150576234,108.61200294297933zM500.05601505762337,107.33400294297934V109.89000294297934c0,0.707,0.573,1.278,1.278,1.278h4.877c-0.528,1.486,-1.932,2.556,-3.599,2.556H501.3340150576234C499.2160150576234,113.72400294297934,497.5000150576234,112.00800294297933,497.5000150576234,109.89000294297934V107.33400294297934C497.5000150576234,105.21600294297933,499.2160150576234,103.50000294297934,501.3340150576234,103.50000294297934h1.278c1.667,0,3.071,1.071,3.599,2.556H501.3340150576234C500.6290150576234,106.05600294297933,500.05601505762337,106.62700294297933,500.05601505762337,107.33400294297934z"></path></a></g><g id="minder_node18"><g id="node_expander17" style="cursor: pointer;" display="none"><path id="kity_path_167" fill="white" stroke="gray" d="M362.50001295655966,180.50000409036875A6,6,0,1,1,350.50001295655966,180.50000409036875A6,6,0,1,1,362.50001295655966,180.50000409036875"></path><path id="kity_path_168" fill="none" stroke="gray"></path></g><path id="node_outline18" fill="none" stroke="none" d="M367.50001319497824,164.50000409036875h137a5,5,0,0,1,5,5v22a5,5,0,0,1,-5,5h-137a5,5,0,0,1,-5,-5v-22a5,5,0,0,1,5,-5z" stroke-width="3"></path><g id="node_text18" fill="black"><text id="kity_text_164" text-rendering="inherit" font-size="12" dy=".8em" y="172.70000406354666" x="372.50001319497824">SphereGeometry</text></g><a id="kity_a_191" xlink:href="https://threejs.org/docs/index.html?q=SphereGeometry#api/zh/geometries/SphereGeometry" target="_blank" xlink:title="https://threejs.org/docs/index.html?q=SphereGeometry#api/zh/geometries/SphereGeometry" style="cursor: pointer;"><path id="kity_path_193" fill="rgba(255, 255, 255, 0)" stroke="none" d="M479.50001475960016,169.50000401586294h16a4,4,0,0,1,4,4v14a4,4,0,0,1,-4,4h-16a4,4,0,0,1,-4,-4v-14a4,4,0,0,1,4,-4z"></path><path id="kity_path_192" fill="#666" stroke="none" d="M494.11401475960014,185.72400401586293h-1.278c-1.668,0,-3.07,-1.07,-3.599,-2.556h4.877c0.707,0,1.278,-0.571,1.278,-1.278V179.33400401586294c0,-0.707,-0.571,-1.278,-1.278,-1.278h-4.877C489.7660147596002,176.57100401586294,491.16801475960017,175.50000401586294,492.8360147596002,175.50000401586294h1.278c2.116,0,3.834,1.716,3.834,3.834V181.89000401586293C497.94801475960014,184.00800401586295,496.2300147596002,185.72400401586293,494.11401475960014,185.72400401586293zM482.6120147596002,180.61200401586294c0,-0.707,0.573,-1.278,1.278,-1.278h7.668c0.707,0,1.278,0.571,1.278,1.278S492.26501475960015,181.89000401586293,491.55801475960016,181.89000401586293H483.89001475960015C483.18501475960016,181.89000401586293,482.6120147596002,181.31900401586293,482.6120147596002,180.61200401586294zM480.05601475960015,179.33400401586294V181.89000401586293c0,0.707,0.573,1.278,1.278,1.278h4.877c-0.528,1.486,-1.932,2.556,-3.599,2.556H481.33401475960017C479.21601475960017,185.72400401586293,477.50001475960016,184.00800401586295,477.50001475960016,181.89000401586293V179.33400401586294C477.50001475960016,177.21600401586295,479.21601475960017,175.50000401586294,481.33401475960017,175.50000401586294h1.278c1.667,0,3.071,1.071,3.599,2.556H481.33401475960017C480.6290147596002,178.05600401586295,480.05601475960015,178.62700401586295,480.05601475960015,179.33400401586294z"></path></a></g><g id="minder_node17"><g id="node_expander16" style="cursor: pointer;" display="none"><path id="kity_path_159" fill="white" stroke="gray" d="M360.50001292675734,252.50000516325235A6,6,0,1,1,348.50001292675734,252.50000516325235A6,6,0,1,1,360.50001292675734,252.50000516325235"></path><path id="kity_path_160" fill="none" stroke="gray"></path></g><path id="node_outline17" fill="none" stroke="none" d="M365.5000131651759,236.50000516325235h127a5,5,0,0,1,5,5v22a5,5,0,0,1,-5,5h-127a5,5,0,0,1,-5,-5v-22a5,5,0,0,1,5,-5z" stroke-width="3"></path><g id="node_text17" fill="black"><text id="kity_text_156" text-rendering="inherit" font-size="12" dy=".8em" y="244.70000513643026" x="370.5000131651759">ConeGeometry</text></g><a id="kity_a_194" xlink:href="https://threejs.org/docs/index.html?q=ConeGeometry#api/zh/geometries/ConeGeometry" target="_blank" xlink:title="https://threejs.org/docs/index.html?q=ConeGeometry#api/zh/geometries/ConeGeometry" style="cursor: pointer;"><path id="kity_path_196" fill="rgba(255, 255, 255, 0)" stroke="none" d="M467.5000145807862,241.50000508874655h16a4,4,0,0,1,4,4v14a4,4,0,0,1,-4,4h-16a4,4,0,0,1,-4,-4v-14a4,4,0,0,1,4,-4z"></path><path id="kity_path_195" fill="#666" stroke="none" d="M482.1140145807862,257.72400508874654h-1.278c-1.668,0,-3.07,-1.07,-3.599,-2.556h4.877c0.707,0,1.278,-0.571,1.278,-1.278V251.33400508874655c0,-0.707,-0.571,-1.278,-1.278,-1.278h-4.877C477.76601458078625,248.57100508874655,479.16801458078623,247.50000508874655,480.83601458078624,247.50000508874655h1.278c2.116,0,3.834,1.716,3.834,3.834V253.89000508874653C485.9480145807862,256.00800508874653,484.23001458078625,257.72400508874654,482.1140145807862,257.72400508874654zM470.61201458078625,252.61200508874654c0,-0.707,0.573,-1.278,1.278,-1.278h7.668c0.707,0,1.278,0.571,1.278,1.278S480.2650145807862,253.89000508874653,479.5580145807862,253.89000508874653H471.8900145807862C471.18501458078623,253.89000508874653,470.61201458078625,253.31900508874654,470.61201458078625,252.61200508874654zM468.0560145807862,251.33400508874655V253.89000508874653c0,0.707,0.573,1.278,1.278,1.278h4.877c-0.528,1.486,-1.932,2.556,-3.599,2.556H469.33401458078623C467.21601458078624,257.72400508874654,465.5000145807862,256.00800508874653,465.5000145807862,253.89000508874653V251.33400508874655C465.5000145807862,249.21600508874656,467.21601458078624,247.50000508874655,469.33401458078623,247.50000508874655h1.278c1.667,0,3.071,1.071,3.599,2.556H469.33401458078623C468.62901458078625,250.05600508874656,468.0560145807862,250.62700508874656,468.0560145807862,251.33400508874655z"></path></a></g><g id="minder_node12" opacity="1"><g id="node_expander11" style="cursor: pointer;" display="none"><path id="kity_path_139" fill="white" stroke="gray" d="M389.500013358891,324.50000623613596A6,6,0,1,1,377.500013358891,324.50000623613596A6,6,0,1,1,389.500013358891,324.50000623613596"></path><path id="kity_path_140" fill="none" stroke="gray"></path></g><path id="node_outline12" fill="none" stroke="none" d="M394.5000135973096,308.50000623613596h129a5,5,0,0,1,5,5v22a5,5,0,0,1,-5,5h-129a5,5,0,0,1,-5,-5v-22a5,5,0,0,1,5,-5z" stroke-width="3"></path><g id="node_text12" fill="black"><text id="kity_text_116" text-rendering="inherit" font-size="12" dy=".8em" y="316.70000620931387" x="399.5000135973096">PlaneGeometry</text></g><a id="kity_a_197" xlink:href="https://threejs.org/docs/index.html?q=PlaneGeometry#api/zh/geometries/PlaneGeometry" target="_blank" xlink:title="https://threejs.org/docs/index.html?q=PlaneGeometry#api/zh/geometries/PlaneGeometry" style="cursor: pointer;"><path id="kity_path_199" fill="rgba(255, 255, 255, 0)" stroke="none" d="M498.5000150427222,313.50000616163015h16a4,4,0,0,1,4,4v14a4,4,0,0,1,-4,4h-16a4,4,0,0,1,-4,-4v-14a4,4,0,0,1,4,-4z"></path><path id="kity_path_198" fill="#666" stroke="none" d="M513.1140150427223,329.72400616163014h-1.278c-1.668,0,-3.07,-1.07,-3.599,-2.556h4.877c0.707,0,1.278,-0.571,1.278,-1.278V323.33400616163016c0,-0.707,-0.571,-1.278,-1.278,-1.278h-4.877C508.76601504272224,320.5710061616302,510.16801504272223,319.50000616163015,511.83601504272224,319.50000616163015h1.278c2.116,0,3.834,1.716,3.834,3.834V325.89000616163014C516.9480150427222,328.00800616163014,515.2300150427222,329.72400616163014,513.1140150427223,329.72400616163014zM501.61201504272225,324.6120061616302c0,-0.707,0.573,-1.278,1.278,-1.278h7.668c0.707,0,1.278,0.571,1.278,1.278S511.2650150427222,325.89000616163014,510.5580150427222,325.89000616163014H502.8900150427222C502.1850150427222,325.89000616163014,501.61201504272225,325.31900616163017,501.61201504272225,324.6120061616302zM499.0560150427222,323.33400616163016V325.89000616163014c0,0.707,0.573,1.278,1.278,1.278h4.877c-0.528,1.486,-1.932,2.556,-3.599,2.556H500.3340150427222C498.21601504272223,329.72400616163014,496.5000150427222,328.00800616163014,496.5000150427222,325.89000616163014V323.33400616163016C496.5000150427222,321.21600616163016,498.21601504272223,319.50000616163015,500.3340150427222,319.50000616163015h1.278c1.667,0,3.071,1.071,3.599,2.556H500.3340150427222C499.62901504272224,322.05600616163014,499.0560150427222,322.62700616163016,499.0560150427222,323.33400616163016z"></path></a></g><g id="minder_node14" opacity="1"><g id="node_expander13" style="cursor: pointer;" display="none"><path id="kity_path_145" fill="white" stroke="gray" d="M374.5000131353736,396.50000730901957A6,6,0,1,1,362.5000131353736,396.50000730901957A6,6,0,1,1,374.5000131353736,396.50000730901957"></path><path id="kity_path_146" fill="none" stroke="gray"></path></g><path id="node_outline14" fill="none" stroke="none" d="M379.50001337379217,380.50000730901957h129a5,5,0,0,1,5,5v22a5,5,0,0,1,-5,5h-129a5,5,0,0,1,-5,-5v-22a5,5,0,0,1,5,-5z" stroke-width="3"></path><g id="node_text14" fill="black"><text id="kity_text_120" text-rendering="inherit" font-size="12" dy=".8em" y="388.7000072821975" x="384.50001337379217">CircleGeometry</text></g><a id="kity_a_200" xlink:href="https://threejs.org/docs/index.html?q=CircleGeometry#api/zh/geometries/CircleGeometry" target="_blank" xlink:title="https://threejs.org/docs/index.html?q=CircleGeometry#api/zh/geometries/CircleGeometry" style="cursor: pointer;"><path id="kity_path_202" fill="rgba(255, 255, 255, 0)" stroke="none" d="M483.5000148192048,385.50000723451376h16a4,4,0,0,1,4,4v14a4,4,0,0,1,-4,4h-16a4,4,0,0,1,-4,-4v-14a4,4,0,0,1,4,-4z"></path><path id="kity_path_201" fill="#666" stroke="none" d="M498.1140148192048,401.72400723451375h-1.278c-1.668,0,-3.07,-1.07,-3.599,-2.556h4.877c0.707,0,1.278,-0.571,1.278,-1.278V395.33400723451376c0,-0.707,-0.571,-1.278,-1.278,-1.278h-4.877C493.7660148192048,392.5710072345138,495.1680148192048,391.50000723451376,496.8360148192048,391.50000723451376h1.278c2.116,0,3.834,1.716,3.834,3.834V397.89000723451375C501.9480148192048,400.00800723451374,500.2300148192048,401.72400723451375,498.1140148192048,401.72400723451375zM486.61201481920483,396.6120072345138c0,-0.707,0.573,-1.278,1.278,-1.278h7.668c0.707,0,1.278,0.571,1.278,1.278S496.2650148192048,397.89000723451375,495.5580148192048,397.89000723451375H487.8900148192048C487.1850148192048,397.89000723451375,486.61201481920483,397.3190072345138,486.61201481920483,396.6120072345138zM484.0560148192048,395.33400723451376V397.89000723451375c0,0.707,0.573,1.278,1.278,1.278h4.877c-0.528,1.486,-1.932,2.556,-3.599,2.556H485.3340148192048C483.2160148192048,401.72400723451375,481.5000148192048,400.00800723451374,481.5000148192048,397.89000723451375V395.33400723451376C481.5000148192048,393.21600723451377,483.2160148192048,391.50000723451376,485.3340148192048,391.50000723451376h1.278c1.667,0,3.071,1.071,3.599,2.556H485.3340148192048C484.6290148192048,394.05600723451374,484.0560148192048,394.62700723451377,484.0560148192048,395.33400723451376z"></path></a></g></g></g></svg>