<svg id="kity_svg_6" xmlns="http://www.w3.org/2000/svg" xmlns:xlink="http://www.w3.org/1999/xlink" version="1.1" width="513" height="322" style="background: rgb(251, 251, 251); visibility: visible;" viewBox="0 0 513 322"><defs id="kity_defs_7"><linearGradient id="kity_linearGradient_17" x1="0" y1="0" x2="0" y2="1"><stop id="kity_stop_18" offset="0" stop-color="rgb(255, 255, 255)"></stop><stop id="kity_stop_19" offset="1" stop-color="rgb(204, 204, 204)"></stop></linearGradient><marker id="kity_marker_2" orient="auto" refX="6" refY="0" viewBox="-7 -7 14 14" markerWidth="7" markerHeight="7" markerUnits="userSpaceOnUse"><path id="kity_path_3" fill="rgb(115, 161, 191)" stroke="none" d="M6,0A6,6,0,1,1,-6,0A6,6,0,1,1,6,0"></path></marker></defs><g id="kity_g_8"><g id="minder1" text-rendering="optimize-speed"><g id="minder_connect_group1"><path id="kity_path_55" fill="none" stroke="rgb(115, 161, 191)" stroke-width="1" d="M66.00000505894423,162.50000385195017A69.5,2,0,0,1,135.50000505894423,160.50000385195017"></path><path id="kity_path_123" fill="none" stroke="rgb(115, 161, 191)" stroke-width="1" d="M278.5000050589442,160.50000385195017C286.5000050589442,160.50000385195017,286.5000050589442,83.50000385195017,294.5000050589442,83.50000385195017"></path><path id="kity_path_127" fill="none" stroke="rgb(115, 161, 191)" stroke-width="1" d="M278.5000050589442,160.50000385195017C286.5000050589442,160.50000385195017,286.5000050589442,239.50000385195017,294.5000050589442,239.50000385195017"></path><path id="kity_path_128" fill="none" stroke="rgb(115, 161, 191)" stroke-width="1" d="M386.5000050589442,83.50000385195017C406.5000050589442,83.50000385195017,406.5000050589442,31.50000385195017,426.5000050589442,31.50000385195017"></path><path id="kity_path_129" fill="none" stroke="rgb(115, 161, 191)" stroke-width="1" d="M386.5000050589442,83.50000385195017C406.5000050589442,83.50000385195017,406.5000050589442,83.50000385195017,426.5000050589442,83.50000385195017"></path><path id="kity_path_130" fill="none" stroke="rgb(115, 161, 191)" stroke-width="1" d="M386.5000050589442,83.50000385195017C406.5000050589442,83.50000385195017,406.5000050589442,135.50000385195017,426.5000050589442,135.50000385195017"></path><path id="kity_path_131" fill="none" stroke="rgb(115, 161, 191)" stroke-width="1" d="M385.5000050589442,239.50000385195017C405.5000050589442,239.50000385195017,405.5000050589442,187.50000385195017,425.5000050589442,187.50000385195017"></path><path id="kity_path_132" fill="none" stroke="rgb(115, 161, 191)" stroke-width="1" d="M385.5000050589442,239.50000385195017C405.5000050589442,239.50000385195017,405.5000050589442,239.50000385195017,425.5000050589442,239.50000385195017"></path><path id="kity_path_133" fill="none" stroke="rgb(115, 161, 191)" stroke-width="1" d="M385.5000050589442,239.50000385195017C405.5000050589442,239.50000385195017,405.5000050589442,291.50000385195017,425.5000050589442,291.50000385195017"></path></g><g id="minder_node1"><path id="node_outline1" fill="rgb(115, 161, 191)" stroke="rgb(115, 161, 191)" d="M25.500005058944225,142.50000385195017h81a5,5,0,0,1,5,5v30a5,5,0,0,1,-5,5h-81a5,5,0,0,1,-5,-5v-30a5,5,0,0,1,5,-5z" stroke-width="3"></path><g id="node_text1" fill="white"><text id="kity_text_22" text-rendering="inherit" font-size="16" dy=".8em" y="152.10000381618738" x="44.500005058944225">scene</text></g></g><g id="kity_g_14" display="none"><path id="kity_path_15" fill="rgba(0, 92, 153, 0.5)" stroke="none" d="M231.50000505894423,169.50000385195017h81v20h-81z"></path><path id="kity_path_16" fill="none" stroke="rgb(0, 76, 128)" d="M231.50000505894423,189.50000385195017L312.5000050589442,189.50000385195017" stroke-width="1"></path></g><g id="minder_node5" opacity="1"><g id="node_expander4" style="cursor: pointer;"><path id="kity_path_60" fill="white" stroke="gray" d="M136.5000063404441,160.50000382214785A6,6,0,1,1,124.50000634044409,160.50000382214785A6,6,0,1,1,136.5000063404441,160.50000382214785"></path><path id="kity_path_61" fill="none" stroke="gray" d="M126.00000634044409,160.50000382214785L135.0000063404441,160.50000382214785"></path></g><path id="node_outline5" fill="rgb(238, 243, 246)" stroke="rgb(115, 161, 191)" d="M140.50000674277544,147.50000382214785h135a3,3,0,0,1,3,3v20a3,3,0,0,1,-3,3h-135a3,3,0,0,1,-3,-3v-20a3,3,0,0,1,3,-3z" stroke-width="1"></path><g id="node_text5" fill="black"><text id="kity_text_57" text-rendering="inherit" font-size="14" dy=".8em" y="151.4000037908554" x="157.50000674277544">group:小区房子</text></g></g><g id="kity_g_12" display="none"><path id="kity_path_13" fill="none" stroke="rgb(66, 94, 112)" d="M234.50000505894423,194.50000385195017h75a3,3,0,0,1,3,3v20a3,3,0,0,1,-3,3h-75a3,3,0,0,1,-3,-3v-20a3,3,0,0,1,3,-3z" stroke-width="5"></path></g><g id="minder_node2" opacity="1"><g id="node_expander3" style="cursor: pointer;"><path id="kity_path_52" fill="white" stroke="gray" d="M294.50000869482756,83.50000267475843A6,6,0,1,1,282.50000869482756,83.50000267475843A6,6,0,1,1,294.50000869482756,83.50000267475843"></path><path id="kity_path_53" fill="none" stroke="gray" d="M284.00000869482756,83.50000267475843L293.00000869482756,83.50000267475843"></path></g><path id="node_outline4" fill="none" stroke="none" d="M299.50000893324614,72.50000267475843h82a5,5,0,0,1,5,5v12a5,5,0,0,1,-5,5h-82a5,5,0,0,1,-5,-5v-12a5,5,0,0,1,5,-5z" stroke-width="3"></path><g id="node_text4" fill="black"><text id="kity_text_41" text-rendering="inherit" font-size="12" dy=".8em" y="75.70000264793634" x="304.50000893324614">group：高层</text></g></g><g id="minder_node6" opacity="1"><g id="node_expander5" style="cursor: pointer;"><path id="kity_path_70" fill="white" stroke="gray" d="M294.50000869482756,239.50000499933958A6,6,0,1,1,282.50000869482756,239.50000499933958A6,6,0,1,1,294.50000869482756,239.50000499933958"></path><path id="kity_path_71" fill="none" stroke="gray" d="M284.00000869482756,239.50000499933958L293.00000869482756,239.50000499933958"></path></g><path id="node_outline6" fill="none" stroke="none" d="M299.50000893324614,228.50000499933958h81a5,5,0,0,1,5,5v12a5,5,0,0,1,-5,5h-81a5,5,0,0,1,-5,-5v-12a5,5,0,0,1,5,-5z" stroke-width="3"></path><g id="node_text6" fill="black"><text id="kity_text_67" text-rendering="inherit" font-size="12" dy=".8em" y="231.7000049725175" x="304.50000893324614">group：洋房</text></g></g><g id="minder_node3"><g id="node_expander1" style="cursor: pointer;" display="none"><path id="kity_path_46" fill="white" stroke="gray" d="M426.50001066178083,31.500001899898052A6,6,0,1,1,414.50001066178083,31.500001899898052A6,6,0,1,1,426.50001066178083,31.500001899898052"></path><path id="kity_path_47" fill="none" stroke="gray"></path></g><path id="node_outline2" fill="none" stroke="none" d="M431.5000109001994,20.500001899898052h57a5,5,0,0,1,5,5v12a5,5,0,0,1,-5,5h-57a5,5,0,0,1,-5,-5v-12a5,5,0,0,1,5,-5z" stroke-width="3"></path><g id="node_text2" fill="black"><text id="kity_text_37" text-rendering="inherit" font-size="12" dy=".8em" y="23.700001873075962" x="436.5000109001994">mesh:楼</text></g></g><g id="minder_node4"><g id="node_expander2" style="cursor: pointer;" display="none"><path id="kity_path_49" fill="white" stroke="gray" d="M426.50001066178083,83.50000267475843A6,6,0,1,1,414.50001066178083,83.50000267475843A6,6,0,1,1,426.50001066178083,83.50000267475843"></path><path id="kity_path_50" fill="none" stroke="gray"></path></g><path id="node_outline3" fill="none" stroke="none" d="M431.5000109001994,72.50000267475843h57a5,5,0,0,1,5,5v12a5,5,0,0,1,-5,5h-57a5,5,0,0,1,-5,-5v-12a5,5,0,0,1,5,-5z" stroke-width="3"></path><g id="node_text3" fill="black"><text id="kity_text_39" text-rendering="inherit" font-size="12" dy=".8em" y="75.70000264793634" x="436.5000109001994">mesh:楼</text></g></g><g id="minder_node8"><g id="node_expander7" style="cursor: pointer;" display="none"><path id="kity_path_86" fill="white" stroke="gray" d="M426.50001066178083,135.50000344961882A6,6,0,1,1,414.50001066178083,135.50000344961882A6,6,0,1,1,426.50001066178083,135.50000344961882"></path><path id="kity_path_87" fill="none" stroke="gray"></path></g><path id="node_outline8" fill="none" stroke="none" d="M431.5000109001994,124.50000344961882h19a5,5,0,0,1,5,5v12a5,5,0,0,1,-5,5h-19a5,5,0,0,1,-5,-5v-12a5,5,0,0,1,5,-5z" stroke-width="3"></path><g id="node_text8" fill="black"><text id="kity_text_83" text-rendering="inherit" font-size="12" dy=".8em" y="127.70000342279673" x="436.5000109001994">...</text></g></g><g id="minder_node9"><g id="node_expander10" style="cursor: pointer;" display="none"><path id="kity_path_110" fill="white" stroke="gray" d="M425.5000106468797,187.5000042244792A6,6,0,1,1,413.5000106468797,187.5000042244792A6,6,0,1,1,425.5000106468797,187.5000042244792"></path><path id="kity_path_111" fill="none" stroke="gray"></path></g><path id="node_outline11" fill="none" stroke="none" d="M430.50001088529825,176.5000042244792h57a5,5,0,0,1,5,5v12a5,5,0,0,1,-5,5h-57a5,5,0,0,1,-5,-5v-12a5,5,0,0,1,5,-5z" stroke-width="3"></path><g id="node_text11" fill="black"><text id="kity_text_107" text-rendering="inherit" font-size="12" dy=".8em" y="179.7000041976571" x="435.50001088529825">mesh:楼</text></g></g><g id="minder_node10"><g id="node_expander9" style="cursor: pointer;" display="none"><path id="kity_path_104" fill="white" stroke="gray" d="M425.5000106468797,239.50000499933958A6,6,0,1,1,413.5000106468797,239.50000499933958A6,6,0,1,1,425.5000106468797,239.50000499933958"></path><path id="kity_path_105" fill="none" stroke="gray"></path></g><path id="node_outline10" fill="none" stroke="none" d="M430.50001088529825,228.50000499933958h57a5,5,0,0,1,5,5v12a5,5,0,0,1,-5,5h-57a5,5,0,0,1,-5,-5v-12a5,5,0,0,1,5,-5z" stroke-width="3"></path><g id="node_text10" fill="black"><text id="kity_text_101" text-rendering="inherit" font-size="12" dy=".8em" y="231.7000049725175" x="435.50001088529825">mesh:楼</text></g></g><g id="minder_node12"><g id="node_expander11" style="cursor: pointer;" display="none"><path id="kity_path_118" fill="white" stroke="gray" d="M425.5000106468797,291.50000577419996A6,6,0,1,1,413.5000106468797,291.50000577419996A6,6,0,1,1,425.5000106468797,291.50000577419996"></path><path id="kity_path_119" fill="none" stroke="gray"></path></g><path id="node_outline12" fill="none" stroke="none" d="M430.50001088529825,280.50000577419996h19a5,5,0,0,1,5,5v12a5,5,0,0,1,-5,5h-19a5,5,0,0,1,-5,-5v-12a5,5,0,0,1,5,-5z" stroke-width="3"></path><g id="node_text12" fill="black"><text id="kity_text_115" text-rendering="inherit" font-size="12" dy=".8em" y="283.7000057473779" x="435.50001088529825">...</text></g></g></g></g></svg>