<svg id="kity_svg_6" xmlns="http://www.w3.org/2000/svg" xmlns:xlink="http://www.w3.org/1999/xlink" version="1.1" width="377" height="114" style="background: rgb(251, 251, 251); visibility: visible;" viewBox="0 0 377 114"><defs id="kity_defs_7"><linearGradient id="kity_linearGradient_17" x1="0" y1="0" x2="0" y2="1"><stop id="kity_stop_18" offset="0" stop-color="rgb(255, 255, 255)"></stop><stop id="kity_stop_19" offset="1" stop-color="rgb(204, 204, 204)"></stop></linearGradient><marker id="kity_marker_2" orient="auto" refX="6" refY="0" viewBox="-7 -7 14 14" markerWidth="7" markerHeight="7" markerUnits="userSpaceOnUse"><path id="kity_path_3" fill="rgb(115, 161, 191)" stroke="none" d="M6,0A6,6,0,1,1,-6,0A6,6,0,1,1,6,0"></path></marker></defs><g id="kity_g_8"><g id="minder1" text-rendering="optimize-speed"><g id="minder_connect_group1"><path id="kity_path_31" fill="none" stroke="rgb(115, 161, 191)" stroke-width="1" d="M66.00000632554293,58.500003553926945A110.5,1,0,0,1,176.50000632554293,57.500003553926945"></path><path id="kity_path_70" fill="none" stroke="rgb(115, 161, 191)" stroke-width="1" d="M259.5000063255429,57.500003553926945C279.5000063255429,57.500003553926945,279.5000063255429,31.500003553926945,299.5000063255429,31.500003553926945"></path><path id="kity_path_71" fill="none" stroke="rgb(115, 161, 191)" stroke-width="1" d="M259.5000063255429,57.500003553926945C279.5000063255429,57.500003553926945,279.5000063255429,83.50000355392694,299.5000063255429,83.50000355392694"></path></g><g id="minder_node1"><path id="node_outline1" fill="rgb(115, 161, 191)" stroke="rgb(115, 161, 191)" d="M25.500006325542927,38.500003553926945h81a5,5,0,0,1,5,5v30a5,5,0,0,1,-5,5h-81a5,5,0,0,1,-5,-5v-30a5,5,0,0,1,5,-5z" stroke-width="3"></path><g id="node_text1" fill="white"><text id="kity_text_22" text-rendering="inherit" font-size="16" dy=".8em" y="48.10000351816416" x="44.50000632554293">scene</text></g></g><g id="kity_g_12" display="none"><path id="kity_path_13" fill="none" stroke="none" d="M44.50000632554293,58.500003553926945h0v0h0z"></path></g><g id="kity_g_14" display="none"><path id="kity_path_15" fill="rgba(0, 92, 153, 0.5)" stroke="none" d="M231.50000632554293,-1.4999964460730553h81v20h-81z"></path><path id="kity_path_16" fill="none" stroke="rgb(0, 76, 128)" d="M231.50000632554293,-1.4999964460730553L312.5000063255429,-1.4999964460730553" stroke-width="1"></path></g><g id="minder_node2" opacity="1"><g id="node_expander1" style="cursor: pointer;"><path id="kity_path_36" fill="white" stroke="gray" d="M177.5000082179904,57.50000353902578A6,6,0,1,1,165.5000082179904,57.50000353902578A6,6,0,1,1,177.5000082179904,57.50000353902578"></path><path id="kity_path_37" fill="none" stroke="gray" d="M167.0000082179904,57.50000353902578L176.0000082179904,57.50000353902578"></path></g><path id="node_outline2" fill="rgb(238, 243, 246)" stroke="rgb(115, 161, 191)" d="M181.50000862032175,44.50000353902578h75a3,3,0,0,1,3,3v20a3,3,0,0,1,-3,3h-75a3,3,0,0,1,-3,-3v-20a3,3,0,0,1,3,-3z" stroke-width="1"></path><g id="node_text2" fill="black"><text id="kity_text_33" text-rendering="inherit" font-size="14" dy=".8em" y="48.400003507733345" x="198.50000862032175">group</text></g></g><g id="minder_node5"><g id="node_expander4" style="cursor: pointer;" display="none"><path id="kity_path_60" fill="white" stroke="gray" d="M299.50001003593206,31.500003151595592A6,6,0,1,1,287.50001003593206,31.500003151595592A6,6,0,1,1,299.50001003593206,31.500003151595592"></path><path id="kity_path_61" fill="none" stroke="gray"></path></g><path id="node_outline5" fill="none" stroke="none" d="M304.50001027435064,20.500003151595592h48a5,5,0,0,1,5,5v12a5,5,0,0,1,-5,5h-48a5,5,0,0,1,-5,-5v-12a5,5,0,0,1,5,-5z" stroke-width="3"></path><g id="node_text5" fill="black"><text id="kity_text_57" text-rendering="inherit" font-size="12" dy=".8em" y="23.700003124773502" x="309.50001027435064">mesh1</text></g></g><g id="minder_node6"><g id="node_expander5" style="cursor: pointer;" display="none"><path id="kity_path_68" fill="white" stroke="gray" d="M299.50001003593206,83.50000392645597A6,6,0,1,1,287.50001003593206,83.50000392645597A6,6,0,1,1,299.50001003593206,83.50000392645597"></path><path id="kity_path_69" fill="none" stroke="gray"></path></g><path id="node_outline6" fill="none" stroke="none" d="M304.50001027435064,72.50000392645597h48a5,5,0,0,1,5,5v12a5,5,0,0,1,-5,5h-48a5,5,0,0,1,-5,-5v-12a5,5,0,0,1,5,-5z" stroke-width="3"></path><g id="node_text6" fill="black"><text id="kity_text_65" text-rendering="inherit" font-size="12" dy=".8em" y="75.70000389963388" x="309.50001027435064">mesh2</text></g></g></g></g></svg>