<svg id="kity_svg_6" xmlns="http://www.w3.org/2000/svg" xmlns:xlink="http://www.w3.org/1999/xlink" version="1.1" width="380" height="246" style="background: rgb(251, 251, 251); visibility: visible;" viewBox="0 0 380 246"><defs id="kity_defs_7"><linearGradient id="kity_linearGradient_17" x1="0" y1="0" x2="0" y2="1"><stop id="kity_stop_18" offset="0" stop-color="rgb(255, 255, 255)"></stop><stop id="kity_stop_19" offset="1" stop-color="rgb(204, 204, 204)"></stop></linearGradient><marker id="kity_marker_2" orient="auto" refX="6" refY="0" viewBox="-7 -7 14 14" markerWidth="7" markerHeight="7" markerUnits="userSpaceOnUse"><path id="kity_path_3" fill="rgb(115, 161, 191)" stroke="none" d="M6,0A6,6,0,1,1,-6,0A6,6,0,1,1,6,0"></path></marker></defs><g id="kity_g_8"><g id="minder1" text-rendering="optimize-speed"><g id="minder_connect_group1"><path id="kity_path_31" fill="none" stroke="rgb(115, 161, 191)" stroke-width="1" d="M61.000004418194294,98.50000339001417A102.5,65,0,0,1,163.5000044181943,33.50000339001417"></path><path id="kity_path_47" fill="none" stroke="rgb(115, 161, 191)" stroke-width="1" d="M61.000004418194294,98.50000339001417A102.5,1,0,0,0,163.5000044181943,99.50000339001417"></path><path id="kity_path_63" fill="none" stroke="rgb(115, 161, 191)" stroke-width="1" d="M61.000004418194294,98.50000339001417A102.5,91,0,0,0,163.5000044181943,189.50000339001417"></path><path id="kity_path_86" fill="none" stroke="rgb(115, 161, 191)" stroke-width="1" d="M235.5000044181943,33.50000339001417C255.5000044181943,33.50000339001417,255.5000044181943,33.50000339001417,275.5000044181943,33.50000339001417"></path><path id="kity_path_87" fill="none" stroke="rgb(115, 161, 191)" stroke-width="1" d="M235.5000044181943,99.50000339001417C255.5000044181943,99.50000339001417,255.5000044181943,99.50000339001417,275.5000044181943,99.50000339001417"></path><path id="kity_path_88" fill="none" stroke="rgb(115, 161, 191)" stroke-width="1" d="M234.5000044181943,189.50000339001417C254.5000044181943,189.50000339001417,254.5000044181943,163.50000339001417,274.5000044181943,163.50000339001417"></path><path id="kity_path_89" fill="none" stroke="rgb(115, 161, 191)" stroke-width="1" d="M234.5000044181943,189.50000339001417C254.5000044181943,189.50000339001417,254.5000044181943,215.50000339001417,274.5000044181943,215.50000339001417"></path></g><g id="minder_node1"><path id="node_outline1" fill="rgb(115, 161, 191)" stroke="rgb(115, 161, 191)" d="M25.500004418194294,78.50000339001417h71a5,5,0,0,1,5,5v30a5,5,0,0,1,-5,5h-71a5,5,0,0,1,-5,-5v-30a5,5,0,0,1,5,-5z" stroke-width="3"></path><g id="node_text1" fill="white"><text id="kity_text_22" text-rendering="inherit" font-size="16" dy=".8em" y="88.10000335425138" x="44.500004418194294">模型</text></g></g><g id="kity_g_12" display="none"><path id="kity_path_13" fill="none" stroke="none" d="M44.500004418194294,98.50000339001417h0v0h0z"></path></g><g id="kity_g_14" display="none"><path id="kity_path_15" fill="none" stroke="none" d="M44.500004418194294,98.50000339001417h0v0h0z"></path><path id="kity_path_16" fill="none" stroke="none"></path></g><g id="minder_node2" opacity="1"><g id="node_expander1" style="cursor: pointer;"><path id="kity_path_36" fill="white" stroke="gray" d="M164.50000611692667,33.500002421438694A6,6,0,1,1,152.50000611692667,33.500002421438694A6,6,0,1,1,164.50000611692667,33.500002421438694"></path><path id="kity_path_37" fill="none" stroke="gray" d="M154.00000611692667,33.500002421438694L163.00000611692667,33.500002421438694"></path></g><path id="node_outline2" fill="rgb(238, 243, 246)" stroke="rgb(115, 161, 191)" d="M168.50000651925802,20.500002421438694h64a3,3,0,0,1,3,3v20a3,3,0,0,1,-3,3h-64a3,3,0,0,1,-3,-3v-20a3,3,0,0,1,3,-3z" stroke-width="1"></path><g id="node_text2" fill="black"><text id="kity_text_33" text-rendering="inherit" font-size="14" dy=".8em" y="24.400002390146255" x="185.50000651925802">位置</text></g></g><g id="minder_node4" opacity="1"><g id="node_expander3" style="cursor: pointer;"><path id="kity_path_52" fill="white" stroke="gray" d="M164.50000611692667,99.50000340491533A6,6,0,1,1,152.50000611692667,99.50000340491533A6,6,0,1,1,164.50000611692667,99.50000340491533"></path><path id="kity_path_53" fill="none" stroke="gray" d="M154.00000611692667,99.50000340491533L163.00000611692667,99.50000340491533"></path></g><path id="node_outline4" fill="rgb(238, 243, 246)" stroke="rgb(115, 161, 191)" d="M168.50000651925802,86.50000340491533h64a3,3,0,0,1,3,3v20a3,3,0,0,1,-3,3h-64a3,3,0,0,1,-3,-3v-20a3,3,0,0,1,3,-3z" stroke-width="1"></path><g id="node_text4" fill="black"><text id="kity_text_49" text-rendering="inherit" font-size="14" dy=".8em" y="90.4000033736229" x="185.50000651925802">缩放</text></g></g><g id="minder_node6" opacity="1"><g id="node_expander5" style="cursor: pointer;"><path id="kity_path_68" fill="white" stroke="gray" d="M164.50000611692667,189.50000474601984A6,6,0,1,1,152.50000611692667,189.50000474601984A6,6,0,1,1,164.50000611692667,189.50000474601984"></path><path id="kity_path_69" fill="none" stroke="gray" d="M154.00000611692667,189.50000474601984L163.00000611692667,189.50000474601984"></path></g><path id="node_outline6" fill="rgb(238, 243, 246)" stroke="rgb(115, 161, 191)" d="M168.50000651925802,176.50000474601984h63a3,3,0,0,1,3,3v20a3,3,0,0,1,-3,3h-63a3,3,0,0,1,-3,-3v-20a3,3,0,0,1,3,-3z" stroke-width="1"></path><g id="node_text6" fill="black"><text id="kity_text_65" text-rendering="inherit" font-size="14" dy=".8em" y="180.4000047147274" x="185.50000651925802">角度</text></g></g><g id="minder_node3"><g id="node_expander2" style="cursor: pointer;" display="none"><path id="kity_path_44" fill="white" stroke="gray" d="M275.50000777095556,33.500002421438694A6,6,0,1,1,263.50000777095556,33.500002421438694A6,6,0,1,1,275.50000777095556,33.500002421438694"></path><path id="kity_path_45" fill="none" stroke="gray"></path></g><path id="node_outline3" fill="none" stroke="none" d="M280.50000800937414,22.500002421438694h60a5,5,0,0,1,5,5v12a5,5,0,0,1,-5,5h-60a5,5,0,0,1,-5,-5v-12a5,5,0,0,1,5,-5z" stroke-width="3"></path><g id="node_text3" fill="black"><text id="kity_text_41" text-rendering="inherit" font-size="12" dy=".8em" y="25.700002394616604" x="285.50000800937414">.position</text></g></g><g id="minder_node5"><g id="node_expander4" style="cursor: pointer;" display="none"><path id="kity_path_60" fill="white" stroke="gray" d="M275.50000777095556,99.50000340491533A6,6,0,1,1,263.50000777095556,99.50000340491533A6,6,0,1,1,275.50000777095556,99.50000340491533"></path><path id="kity_path_61" fill="none" stroke="gray"></path></g><path id="node_outline5" fill="none" stroke="none" d="M280.50000800937414,88.50000340491533h41a5,5,0,0,1,5,5v12a5,5,0,0,1,-5,5h-41a5,5,0,0,1,-5,-5v-12a5,5,0,0,1,5,-5z" stroke-width="3"></path><g id="node_text5" fill="black"><text id="kity_text_57" text-rendering="inherit" font-size="12" dy=".8em" y="91.70000337809324" x="285.50000800937414">.scale</text></g></g><g id="minder_node7"><g id="node_expander6" style="cursor: pointer;" display="none"><path id="kity_path_76" fill="white" stroke="gray" d="M274.5000077560544,163.50000435858965A6,6,0,1,1,262.5000077560544,163.50000435858965A6,6,0,1,1,274.5000077560544,163.50000435858965"></path><path id="kity_path_77" fill="none" stroke="gray"></path></g><path id="node_outline7" fill="none" stroke="none" d="M279.500007994473,152.50000435858965h59a5,5,0,0,1,5,5v12a5,5,0,0,1,-5,5h-59a5,5,0,0,1,-5,-5v-12a5,5,0,0,1,5,-5z" stroke-width="3"></path><g id="node_text7" fill="black"><text id="kity_text_73" text-rendering="inherit" font-size="12" dy=".8em" y="155.70000433176756" x="284.500007994473">.rotation</text></g></g><g id="minder_node8"><g id="node_expander7" style="cursor: pointer;" display="none"><path id="kity_path_84" fill="white" stroke="gray" d="M274.5000077560544,215.50000513345003A6,6,0,1,1,262.5000077560544,215.50000513345003A6,6,0,1,1,274.5000077560544,215.50000513345003"></path><path id="kity_path_85" fill="none" stroke="gray"></path></g><path id="node_outline8" fill="none" stroke="none" d="M279.500007994473,204.50000513345003h76a5,5,0,0,1,5,5v12a5,5,0,0,1,-5,5h-76a5,5,0,0,1,-5,-5v-12a5,5,0,0,1,5,-5z" stroke-width="3"></path><g id="node_text8" fill="black"><text id="kity_text_81" text-rendering="inherit" font-size="12" dy=".8em" y="207.70000510662794" x="284.500007994473">.quaternion</text></g></g></g></g></svg>