<svg id="kity_svg_6" xmlns="http://www.w3.org/2000/svg" xmlns:xlink="http://www.w3.org/1999/xlink" version="1.1" width="574" height="312" style="background: rgb(251, 251, 251); visibility: visible;" viewBox="0 0 574 312"><defs id="kity_defs_7"><linearGradient id="kity_linearGradient_17" x1="0" y1="0" x2="0" y2="1"><stop id="kity_stop_18" offset="0" stop-color="rgb(255, 255, 255)"></stop><stop id="kity_stop_19" offset="1" stop-color="rgb(204, 204, 204)"></stop></linearGradient><marker id="kity_marker_2" orient="auto" refX="6" refY="0" viewBox="-7 -7 14 14" markerWidth="7" markerHeight="7" markerUnits="userSpaceOnUse"><path id="kity_path_3" fill="rgb(115, 161, 191)" stroke="none" d="M6,0A6,6,0,1,1,-6,0A6,6,0,1,1,6,0"></path></marker></defs><g id="kity_g_8"><g id="minder1" text-rendering="optimize-speed"><g id="minder_connect_group1"><path id="kity_path_33" fill="none" stroke="rgb(115, 161, 191)" stroke-width="1" d="M92.00000516325235,144.50000392645597A189.5,111,0,0,1,281.50000516325235,33.500003926455975"></path><path id="kity_path_39" fill="none" stroke="rgb(115, 161, 191)" stroke-width="1" d="M92.00000516325235,144.50000392645597A189.5,45,0,0,1,281.50000516325235,99.50000392645597"></path><path id="kity_path_43" fill="none" stroke="rgb(115, 161, 191)" stroke-width="1" d="M92.00000516325235,144.50000392645597A189.5,21,0,0,0,281.50000516325235,165.50000392645597"></path><path id="kity_path_47" fill="none" stroke="rgb(115, 161, 191)" stroke-width="1" d="M92.00000516325235,144.50000392645597A189.5,111,0,0,0,281.50000516325235,255.50000392645597"></path><path id="kity_path_118" fill="none" stroke="rgb(115, 161, 191)" stroke-width="1" d="M352.50000516325235,33.500003926455975C372.50000516325235,33.500003926455975,372.50000516325235,33.500003926455975,392.50000516325235,33.500003926455975"></path><path id="kity_path_119" fill="none" stroke="rgb(115, 161, 191)" stroke-width="1" d="M367.50000516325235,99.50000392645597C387.50000516325235,99.50000392645597,387.50000516325235,99.50000392645597,407.50000516325235,99.50000392645597"></path><path id="kity_path_120" fill="none" stroke="rgb(115, 161, 191)" stroke-width="1" d="M352.50000516325235,165.50000392645597C372.50000516325235,165.50000392645597,372.50000516325235,165.50000392645597,392.50000516325235,165.50000392645597"></path><path id="kity_path_121" fill="none" stroke="rgb(115, 161, 191)" stroke-width="1" d="M353.50000516325235,255.50000392645597C373.50000516325235,255.50000392645597,373.50000516325235,229.50000392645597,393.50000516325235,229.50000392645597"></path><path id="kity_path_122" fill="none" stroke="rgb(115, 161, 191)" stroke-width="1" d="M353.50000516325235,255.50000392645597C373.50000516325235,255.50000392645597,373.50000516325235,281.500003926456,393.50000516325235,281.500003926456"></path></g><g id="minder_node1"><path id="node_outline1" fill="rgb(115, 161, 191)" stroke="rgb(115, 161, 191)" d="M25.500005163252354,124.50000392645597h133a5,5,0,0,1,5,5v30a5,5,0,0,1,-5,5h-133a5,5,0,0,1,-5,-5v-30a5,5,0,0,1,5,-5z" stroke-width="3"></path><g id="node_text1" fill="white"><text id="kity_text_22" text-rendering="inherit" font-size="16" dy=".8em" y="134.1000038906932" x="44.500005163252354">父类Material</text></g></g><g id="kity_g_14" display="none"><path id="kity_path_15" fill="none" stroke="none" d="M44.500005163252354,144.50000392645597h0v0h0z"></path><path id="kity_path_16" fill="none" stroke="none"></path></g><g id="minder_node3" opacity="1"><g id="node_expander2" style="cursor: pointer;"><path id="kity_path_89" fill="white" stroke="gray" d="M282.50000862032175,33.50000227242708A6,6,0,1,1,270.50000862032175,33.50000227242708A6,6,0,1,1,282.50000862032175,33.50000227242708"></path><path id="kity_path_90" fill="none" stroke="gray" d="M272.00000862032175,33.50000227242708L281.00000862032175,33.50000227242708"></path></g><path id="node_outline3" fill="rgb(238, 243, 246)" stroke="rgb(115, 161, 191)" d="M286.5000090226531,20.500002272427082h63a3,3,0,0,1,3,3v20a3,3,0,0,1,-3,3h-63a3,3,0,0,1,-3,-3v-20a3,3,0,0,1,3,-3z" stroke-width="1"></path><g id="node_text3" fill="black"><text id="kity_text_55" text-rendering="inherit" font-size="14" dy=".8em" y="24.400002241134644" x="303.5000090226531">基础</text></g></g><g id="minder_node6" opacity="1"><g id="node_expander5" style="cursor: pointer;"><path id="kity_path_98" fill="white" stroke="gray" d="M282.50000862032175,99.50000325590372A6,6,0,1,1,270.50000862032175,99.50000325590372A6,6,0,1,1,282.50000862032175,99.50000325590372"></path><path id="kity_path_99" fill="none" stroke="gray" d="M272.00000862032175,99.50000325590372L281.00000862032175,99.50000325590372"></path></g><path id="node_outline6" fill="rgb(238, 243, 246)" stroke="rgb(115, 161, 191)" d="M286.5000090226531,86.50000325590372h78a3,3,0,0,1,3,3v20a3,3,0,0,1,-3,3h-78a3,3,0,0,1,-3,-3v-20a3,3,0,0,1,3,-3z" stroke-width="1"></path><g id="node_text6" fill="black"><text id="kity_text_61" text-rendering="inherit" font-size="14" dy=".8em" y="90.40000322461128" x="303.5000090226531">漫反射</text></g></g><g id="minder_node8" opacity="1"><g id="node_expander7" style="cursor: pointer;"><path id="kity_path_104" fill="white" stroke="gray" d="M282.50000862032175,165.50000423938036A6,6,0,1,1,270.50000862032175,165.50000423938036A6,6,0,1,1,282.50000862032175,165.50000423938036"></path><path id="kity_path_105" fill="none" stroke="gray" d="M272.00000862032175,165.50000423938036L281.00000862032175,165.50000423938036"></path></g><path id="node_outline8" fill="rgb(238, 243, 246)" stroke="rgb(115, 161, 191)" d="M286.5000090226531,152.50000423938036h63a3,3,0,0,1,3,3v20a3,3,0,0,1,-3,3h-63a3,3,0,0,1,-3,-3v-20a3,3,0,0,1,3,-3z" stroke-width="1"></path><g id="node_text8" fill="black"><text id="kity_text_65" text-rendering="inherit" font-size="14" dy=".8em" y="156.40000420808792" x="303.5000090226531">高光</text></g></g><g id="minder_node10" opacity="1"><g id="node_expander10" style="cursor: pointer;"><path id="kity_path_113" fill="white" stroke="gray" d="M282.50000862032175,255.50000558048487A6,6,0,1,1,270.50000862032175,255.50000558048487A6,6,0,1,1,282.50000862032175,255.50000558048487"></path><path id="kity_path_114" fill="none" stroke="gray" d="M272.00000862032175,255.50000558048487L281.00000862032175,255.50000558048487"></path></g><path id="node_outline11" fill="rgb(238, 243, 246)" stroke="rgb(115, 161, 191)" d="M286.5000090226531,242.50000558048487h64a3,3,0,0,1,3,3v20a3,3,0,0,1,-3,3h-64a3,3,0,0,1,-3,-3v-20a3,3,0,0,1,3,-3z" stroke-width="1"></path><g id="node_text11" fill="black"><text id="kity_text_71" text-rendering="inherit" font-size="14" dy=".8em" y="246.40000554919243" x="303.5000090226531">物理</text></g></g><g id="kity_g_12" display="none"><path id="kity_path_13" fill="none" stroke="rgb(66, 94, 112)" d="M25.500005163252354,124.50000392645597h133a5,5,0,0,1,5,5v30a5,5,0,0,1,-5,5h-133a5,5,0,0,1,-5,-5v-30a5,5,0,0,1,5,-5z" stroke-width="5"></path></g><g id="minder_node4"><g id="node_expander1" style="cursor: pointer;" display="none"><path id="kity_path_86" fill="white" stroke="gray" d="M392.5000102594495,33.50000227242708A6,6,0,1,1,380.5000102594495,33.50000227242708A6,6,0,1,1,392.5000102594495,33.50000227242708"></path><path id="kity_path_87" fill="none" stroke="gray"></path></g><path id="node_outline2" fill="none" stroke="none" d="M397.50001049786806,22.500002272427082h118a5,5,0,0,1,5,5v12a5,5,0,0,1,-5,5h-118a5,5,0,0,1,-5,-5v-12a5,5,0,0,1,5,-5z" stroke-width="3"></path><g id="node_text2" fill="black"><text id="kity_text_53" text-rendering="inherit" font-size="12" dy=".8em" y="25.700002245604992" x="402.50001049786806">MeshBasicMaterial</text></g></g><g id="minder_node7"><g id="node_expander4" style="cursor: pointer;" display="none"><path id="kity_path_95" fill="white" stroke="gray" d="M407.5000104829669,99.50000325590372A6,6,0,1,1,395.5000104829669,99.50000325590372A6,6,0,1,1,407.5000104829669,99.50000325590372"></path><path id="kity_path_96" fill="none" stroke="gray"></path></g><path id="node_outline5" fill="none" stroke="none" d="M412.5000107213855,88.50000325590372h137a5,5,0,0,1,5,5v12a5,5,0,0,1,-5,5h-137a5,5,0,0,1,-5,-5v-12a5,5,0,0,1,5,-5z" stroke-width="3"></path><g id="node_text5" fill="black"><text id="kity_text_59" text-rendering="inherit" font-size="12" dy=".8em" y="91.70000322908163" x="417.5000107213855">MeshLambertMaterial</text></g></g><g id="minder_node9"><g id="node_expander6" style="cursor: pointer;" display="none"><path id="kity_path_101" fill="white" stroke="gray" d="M392.5000102594495,165.50000423938036A6,6,0,1,1,380.5000102594495,165.50000423938036A6,6,0,1,1,392.5000102594495,165.50000423938036"></path><path id="kity_path_102" fill="none" stroke="gray"></path></g><path id="node_outline7" fill="none" stroke="none" d="M397.50001049786806,154.50000423938036h126a5,5,0,0,1,5,5v12a5,5,0,0,1,-5,5h-126a5,5,0,0,1,-5,-5v-12a5,5,0,0,1,5,-5z" stroke-width="3"></path><g id="node_text7" fill="black"><text id="kity_text_63" text-rendering="inherit" font-size="12" dy=".8em" y="157.70000421255827" x="402.50001049786806">MeshPhongMaterial</text></g></g><g id="minder_node11"><g id="node_expander8" style="cursor: pointer;" display="none"><path id="kity_path_107" fill="white" stroke="gray" d="M393.50001027435064,229.50000519305468A6,6,0,1,1,381.50001027435064,229.50000519305468A6,6,0,1,1,393.50001027435064,229.50000519305468"></path><path id="kity_path_108" fill="none" stroke="gray"></path></g><path id="node_outline9" fill="none" stroke="none" d="M398.5000105127692,218.50000519305468h140a5,5,0,0,1,5,5v12a5,5,0,0,1,-5,5h-140a5,5,0,0,1,-5,-5v-12a5,5,0,0,1,5,-5z" stroke-width="3"></path><g id="node_text9" fill="black"><text id="kity_text_67" text-rendering="inherit" font-size="12" dy=".8em" y="221.7000051662326" x="403.5000105127692">MeshStandardMaterial</text></g></g><g id="minder_node12"><g id="node_expander9" style="cursor: pointer;" display="none"><path id="kity_path_110" fill="white" stroke="gray" d="M393.50001027435064,281.50000596791506A6,6,0,1,1,381.50001027435064,281.50000596791506A6,6,0,1,1,393.50001027435064,281.50000596791506"></path><path id="kity_path_111" fill="none" stroke="gray"></path></g><path id="node_outline10" fill="none" stroke="none" d="M398.5000105127692,270.50000596791506h134a5,5,0,0,1,5,5v12a5,5,0,0,1,-5,5h-134a5,5,0,0,1,-5,-5v-12a5,5,0,0,1,5,-5z" stroke-width="3"></path><g id="node_text10" fill="black"><text id="kity_text_69" text-rendering="inherit" font-size="12" dy=".8em" y="273.70000594109297" x="403.5000105127692">MeshPhysicalMaterial</text></g></g></g></g></svg>