<svg id="kity_svg_6" xmlns="http://www.w3.org/2000/svg" xmlns:xlink="http://www.w3.org/1999/xlink" version="1.1" width="611" height="328" style="background: rgb(251, 251, 251); visibility: visible;" viewBox="0 0 611 328"><defs id="kity_defs_7"><linearGradient id="kity_linearGradient_17" x1="0" y1="0" x2="0" y2="1"><stop id="kity_stop_18" offset="0" stop-color="rgb(255, 255, 255)"></stop><stop id="kity_stop_19" offset="1" stop-color="rgb(204, 204, 204)"></stop></linearGradient><marker id="kity_marker_2" orient="auto" refX="6" refY="0" viewBox="-7 -7 14 14" markerWidth="7" markerHeight="7" markerUnits="userSpaceOnUse"><path id="kity_path_3" fill="rgb(115, 161, 191)" stroke="none" d="M6,0A6,6,0,1,1,-6,0A6,6,0,1,1,6,0"></path></marker></defs><g id="kity_g_8"><g id="minder1" text-rendering="optimize-speed"><g id="minder_connect_group1"><path id="kity_path_53" fill="none" stroke="rgb(115, 161, 191)" stroke-width="1" d="M61.00000690668821,155.50000592321157A123.5,118,0,0,0,184.5000069066882,273.5000059232116"></path><path id="kity_path_64" fill="none" stroke="rgb(115, 161, 191)" stroke-width="1" d="M61.00000690668821,155.50000592321157A123.5,119,0,0,1,184.5000069066882,36.500005923211575"></path><path id="kity_path_72" fill="none" stroke="rgb(115, 161, 191)" stroke-width="1" d="M61.00000690668821,155.50000592321157A123.5,47,0,0,1,184.5000069066882,108.50000592321157"></path><path id="kity_path_113" fill="none" stroke="rgb(115, 161, 191)" stroke-width="1" d="M61.00000690668821,155.50000592321157A123.5,25,0,0,0,184.5000069066882,180.50000592321157"></path><path id="kity_path_136" fill="none" stroke="rgb(115, 161, 191)" stroke-width="1" d="M298.5000069066882,36.500005923211575C318.5000069066882,36.500005923211575,318.5000069066882,36.500005923211575,338.5000069066882,36.500005923211575"></path><path id="kity_path_137" fill="none" stroke="rgb(115, 161, 191)" stroke-width="1" d="M315.5000069066882,108.50000592321157C335.5000069066882,108.50000592321157,335.5000069066882,108.50000592321157,355.5000069066882,108.50000592321157"></path><path id="kity_path_138" fill="none" stroke="rgb(115, 161, 191)" stroke-width="1" d="M283.5000069066882,180.50000592321157C303.5000069066882,180.50000592321157,303.5000069066882,180.50000592321157,323.5000069066882,180.50000592321157"></path><path id="kity_path_139" fill="none" stroke="rgb(115, 161, 191)" stroke-width="1" d="M397.5000069066882,273.5000059232116C402.0000069066882,273.5000059232116,402.0000069066882,245.50000592321157,406.5000069066882,245.50000592321157"></path><path id="kity_path_140" fill="none" stroke="rgb(115, 161, 191)" stroke-width="1" d="M397.5000069066882,273.5000059232116C402.0000069066882,273.5000059232116,402.0000069066882,297.5000059232116,406.5000069066882,297.5000059232116"></path><path id="kity_path_141" fill="none" stroke="rgb(115, 161, 191)" stroke-width="1" d="M335.5000069066882,273.5000059232116C343.5000069066882,273.5000059232116,343.5000069066882,273.5000059232116,351.5000069066882,273.5000059232116"></path></g><g id="minder_node1"><path id="node_outline1" fill="rgb(115, 161, 191)" stroke="rgb(115, 161, 191)" d="M25.500006906688213,135.50000592321157h71a5,5,0,0,1,5,5v30a5,5,0,0,1,-5,5h-71a5,5,0,0,1,-5,-5v-30a5,5,0,0,1,5,-5z" stroke-width="3"></path><g id="node_text1" fill="white"><text id="kity_text_22" text-rendering="inherit" font-size="16" dy=".8em" y="145.1000058874488" x="44.50000690668821">相机</text></g></g><g id="kity_g_14" display="none"><path id="kity_path_15" fill="rgba(0, 92, 153, 0.5)" stroke="none" d="M221.5000069066882,281.5000059232116h70v20h-70z"></path><path id="kity_path_16" fill="none" stroke="rgb(0, 76, 128)" d="M221.5000069066882,281.5000059232116L291.5000069066882,281.5000059232116" stroke-width="1"></path></g><g id="minder_node4" opacity="1"><g id="node_expander3" style="cursor: pointer;"><path id="kity_path_58" fill="white" stroke="gray" d="M185.50000891834497,273.5000076815486A6,6,0,1,1,173.50000891834497,273.5000076815486A6,6,0,1,1,185.50000891834497,273.5000076815486"></path><path id="kity_path_59" fill="none" stroke="gray" d="M175.00000891834497,273.5000076815486L184.00000891834497,273.5000076815486"></path></g><path id="node_outline4" fill="rgb(238, 243, 246)" stroke="rgb(115, 161, 191)" d="M189.50000932067633,256.5000076815486h143a3,3,0,0,1,3,3v28a3,3,0,0,1,-3,3h-143a3,3,0,0,1,-3,-3v-28a3,3,0,0,1,3,-3z" stroke-width="1"></path><g id="node_text4" fill="black"><text id="kity_text_55" text-rendering="inherit" font-size="14" dy=".8em" y="264.40000765025616" x="206.50000932067633">基类Camera</text></g><a id="kity_a_60" xlink:href="http://www.yanhuangxueyuan.com/threejs/docs/index.html#api/zh/cameras/Camera" target="_blank" xlink:title="http://www.yanhuangxueyuan.com/threejs/docs/index.html#api/zh/cameras/Camera" style="cursor: pointer;"><path id="kity_path_62" fill="rgba(255, 255, 255, 0)" stroke="none" d="M295.50001061707735,262.5000076070428h16a4,4,0,0,1,4,4v14a4,4,0,0,1,-4,4h-16a4,4,0,0,1,-4,-4v-14a4,4,0,0,1,4,-4z"></path><path id="kity_path_61" fill="#666" stroke="none" d="M310.1140106170773,278.7240076070428h-1.278c-1.668,0,-3.07,-1.07,-3.599,-2.556h4.877c0.707,0,1.278,-0.571,1.278,-1.278V272.3340076070428c0,-0.707,-0.571,-1.278,-1.278,-1.278h-4.877C305.76601061707737,269.5710076070428,307.16801061707736,268.5000076070428,308.83601061707736,268.5000076070428h1.278c2.116,0,3.834,1.716,3.834,3.834V274.8900076070428C313.94801061707733,277.00800760704277,312.23001061707737,278.7240076070428,310.1140106170773,278.7240076070428zM298.6120106170774,273.6120076070428c0,-0.707,0.573,-1.278,1.278,-1.278h7.668c0.707,0,1.278,0.571,1.278,1.278S308.26501061707734,274.8900076070428,307.55801061707734,274.8900076070428H299.89001061707734C299.18501061707735,274.8900076070428,298.6120106170774,274.3190076070428,298.6120106170774,273.6120076070428zM296.05601061707733,272.3340076070428V274.8900076070428c0,0.707,0.573,1.278,1.278,1.278h4.877c-0.528,1.486,-1.932,2.556,-3.599,2.556H297.33401061707735C295.21601061707736,278.7240076070428,293.50001061707735,277.00800760704277,293.50001061707735,274.8900076070428V272.3340076070428C293.50001061707735,270.2160076070428,295.21601061707736,268.5000076070428,297.33401061707735,268.5000076070428h1.278c1.667,0,3.071,1.071,3.599,2.556H297.33401061707735C296.62901061707737,271.0560076070428,296.05601061707733,271.6270076070428,296.05601061707733,272.3340076070428z"></path></a></g><g id="minder_node5" opacity="1"><g id="node_expander4" style="cursor: pointer;"><path id="kity_path_69" fill="white" stroke="gray" d="M185.50000891834497,36.50000414997339A6,6,0,1,1,173.50000891834497,36.50000414997339A6,6,0,1,1,185.50000891834497,36.50000414997339"></path><path id="kity_path_70" fill="none" stroke="gray" d="M175.00000891834497,36.50000414997339L184.00000891834497,36.50000414997339"></path></g><path id="node_outline5" fill="rgb(238, 243, 246)" stroke="rgb(115, 161, 191)" d="M189.50000932067633,23.500004149973392h106a3,3,0,0,1,3,3v20a3,3,0,0,1,-3,3h-106a3,3,0,0,1,-3,-3v-20a3,3,0,0,1,3,-3z" stroke-width="1"></path><g id="node_text5" fill="black"><text id="kity_text_66" text-rendering="inherit" font-size="14" dy=".8em" y="27.400004118680954" x="206.50000932067633">正投影相机</text></g></g><g id="minder_node6" opacity="1"><g id="node_expander5" style="cursor: pointer;"><path id="kity_path_77" fill="white" stroke="gray" d="M185.50000891834497,108.500005222857A6,6,0,1,1,173.50000891834497,108.500005222857A6,6,0,1,1,185.50000891834497,108.500005222857"></path><path id="kity_path_78" fill="none" stroke="gray" d="M175.00000891834497,108.500005222857L184.00000891834497,108.500005222857"></path></g><path id="node_outline6" fill="rgb(238, 243, 246)" stroke="rgb(115, 161, 191)" d="M189.50000932067633,95.500005222857h123a3,3,0,0,1,3,3v20a3,3,0,0,1,-3,3h-123a3,3,0,0,1,-3,-3v-20a3,3,0,0,1,3,-3z" stroke-width="1"></path><g id="node_text6" fill="black"><text id="kity_text_74" text-rendering="inherit" font-size="14" dy=".8em" y="99.40000519156456" x="206.50000932067633">&#xa0;透视投影相机</text></g></g><g id="kity_g_12" display="none"><path id="kity_path_13" fill="none" stroke="rgb(66, 94, 112)" d="M25.500006906688213,135.50000592321157h71a5,5,0,0,1,5,5v30a5,5,0,0,1,-5,5h-71a5,5,0,0,1,-5,-5v-30a5,5,0,0,1,5,-5z" stroke-width="5"></path></g><g id="minder_node11" opacity="1"><g id="node_expander10" style="cursor: pointer;"><path id="kity_path_118" fill="white" stroke="gray" d="M185.50000891834497,180.5000062957406A6,6,0,1,1,173.50000891834497,180.5000062957406A6,6,0,1,1,185.50000891834497,180.5000062957406"></path><path id="kity_path_119" fill="none" stroke="gray" d="M175.00000891834497,180.5000062957406L184.00000891834497,180.5000062957406"></path></g><path id="node_outline11" fill="rgb(238, 243, 246)" stroke="rgb(115, 161, 191)" d="M189.50000932067633,167.5000062957406h91a3,3,0,0,1,3,3v20a3,3,0,0,1,-3,3h-91a3,3,0,0,1,-3,-3v-20a3,3,0,0,1,3,-3z" stroke-width="1"></path><g id="node_text11" fill="black"><text id="kity_text_115" text-rendering="inherit" font-size="14" dy=".8em" y="171.40000626444817" x="206.50000932067633">立方相机</text></g></g><g id="minder_node2" opacity="1"><g id="node_expander1" style="cursor: pointer;" display="none"><path id="kity_path_36" fill="white" stroke="gray" d="M338.50001119822264,36.50000414997339A6,6,0,1,1,326.50001119822264,36.50000414997339A6,6,0,1,1,338.50001119822264,36.50000414997339"></path><path id="kity_path_37" fill="none" stroke="gray"></path></g><path id="node_outline2" fill="none" stroke="none" d="M343.5000114366412,20.500004149973392h160a5,5,0,0,1,5,5v22a5,5,0,0,1,-5,5h-160a5,5,0,0,1,-5,-5v-22a5,5,0,0,1,5,-5z" stroke-width="3"></path><g id="node_text2" fill="black"><text id="kity_text_33" text-rendering="inherit" font-size="12" dy=".8em" y="28.700004123151302" x="348.5000114366412">OrthographicCamera </text></g><a id="kity_a_49" xlink:href="http://www.yanhuangxueyuan.com/threejs/docs/index.html#api/zh/cameras/OrthographicCamera" target="_blank" xlink:title="http://www.yanhuangxueyuan.com/threejs/docs/index.html#api/zh/cameras/OrthographicCamera" style="cursor: pointer;"><path id="kity_path_51" fill="rgba(255, 255, 255, 0)" stroke="none" d="M478.50001334398985,25.500004075467587h16a4,4,0,0,1,4,4v14a4,4,0,0,1,-4,4h-16a4,4,0,0,1,-4,-4v-14a4,4,0,0,1,4,-4z"></path><path id="kity_path_50" fill="#666" stroke="none" d="M493.1140133439898,41.72400407546759h-1.278c-1.668,0,-3.07,-1.07,-3.599,-2.556h4.877c0.707,0,1.278,-0.571,1.278,-1.278V35.33400407546759c0,-0.707,-0.571,-1.278,-1.278,-1.278h-4.877C488.76601334398987,32.571004075467584,490.16801334398986,31.500004075467587,491.83601334398986,31.500004075467587h1.278c2.116,0,3.834,1.716,3.834,3.834V37.89000407546759C496.9480133439898,40.00800407546758,495.23001334398987,41.72400407546759,493.1140133439898,41.72400407546759zM481.6120133439899,36.61200407546759c0,-0.707,0.573,-1.278,1.278,-1.278h7.668c0.707,0,1.278,0.571,1.278,1.278S491.26501334398984,37.89000407546759,490.55801334398984,37.89000407546759H482.89001334398984C482.18501334398985,37.89000407546759,481.6120133439899,37.31900407546759,481.6120133439899,36.61200407546759zM479.05601334398983,35.33400407546759V37.89000407546759c0,0.707,0.573,1.278,1.278,1.278h4.877c-0.528,1.486,-1.932,2.556,-3.599,2.556H480.33401334398985C478.21601334398986,41.72400407546759,476.50001334398985,40.00800407546758,476.50001334398985,37.89000407546759V35.33400407546759C476.50001334398985,33.21600407546759,478.21601334398986,31.500004075467587,480.33401334398985,31.500004075467587h1.278c1.667,0,3.071,1.071,3.599,2.556H480.33401334398985C479.62901334398987,34.056004075467584,479.05601334398983,34.62700407546759,479.05601334398983,35.33400407546759z"></path></a></g><g id="minder_node3" opacity="1"><g id="node_expander2" style="cursor: pointer;" display="none"><path id="kity_path_44" fill="white" stroke="gray" d="M355.5000114515424,108.500005222857A6,6,0,1,1,343.5000114515424,108.500005222857A6,6,0,1,1,355.5000114515424,108.500005222857"></path><path id="kity_path_45" fill="none" stroke="gray"></path></g><path id="node_outline3" fill="none" stroke="none" d="M360.50001168996096,92.500005222857h148a5,5,0,0,1,5,5v22a5,5,0,0,1,-5,5h-148a5,5,0,0,1,-5,-5v-22a5,5,0,0,1,5,-5z" stroke-width="3"></path><g id="node_text3" fill="black"><text id="kity_text_41" text-rendering="inherit" font-size="12" dy=".8em" y="100.70000519603491" x="365.50001168996096">PerspectiveCamera </text></g><a id="kity_a_46" xlink:href="http://www.yanhuangxueyuan.com/threejs/docs/index.html#api/zh/cameras/PerspectiveCamera" target="_blank" xlink:title="http://www.yanhuangxueyuan.com/threejs/docs/index.html#api/zh/cameras/PerspectiveCamera" style="cursor: pointer;"><path id="kity_path_48" fill="rgba(255, 255, 255, 0)" stroke="none" d="M483.50001341849566,97.50000514835119h16a4,4,0,0,1,4,4v14a4,4,0,0,1,-4,4h-16a4,4,0,0,1,-4,-4v-14a4,4,0,0,1,4,-4z"></path><path id="kity_path_47" fill="#666" stroke="none" d="M498.11401341849563,113.7240051483512h-1.278c-1.668,0,-3.07,-1.07,-3.599,-2.556h4.877c0.707,0,1.278,-0.571,1.278,-1.278V107.3340051483512c0,-0.707,-0.571,-1.278,-1.278,-1.278h-4.877C493.7660134184957,104.57100514835119,495.16801341849566,103.50000514835119,496.83601341849567,103.50000514835119h1.278c2.116,0,3.834,1.716,3.834,3.834V109.8900051483512C501.94801341849563,112.00800514835119,500.2300134184957,113.7240051483512,498.11401341849563,113.7240051483512zM486.6120134184957,108.61200514835119c0,-0.707,0.573,-1.278,1.278,-1.278h7.668c0.707,0,1.278,0.571,1.278,1.278S496.26501341849564,109.8900051483512,495.55801341849565,109.8900051483512H487.89001341849564C487.18501341849566,109.8900051483512,486.6120134184957,109.3190051483512,486.6120134184957,108.61200514835119zM484.05601341849564,107.3340051483512V109.8900051483512c0,0.707,0.573,1.278,1.278,1.278h4.877c-0.528,1.486,-1.932,2.556,-3.599,2.556H485.33401341849566C483.21601341849566,113.7240051483512,481.50001341849566,112.00800514835119,481.50001341849566,109.8900051483512V107.3340051483512C481.50001341849566,105.21600514835119,483.21601341849566,103.50000514835119,485.33401341849566,103.50000514835119h1.278c1.667,0,3.071,1.071,3.599,2.556H485.33401341849566C484.6290134184957,106.05600514835119,484.05601341849564,106.62700514835119,484.05601341849564,107.3340051483512z"></path></a></g><g id="minder_node12"><g id="node_expander11" style="cursor: pointer;" display="none"><path id="kity_path_126" fill="white" stroke="gray" d="M323.5000109747052,180.5000062957406A6,6,0,1,1,311.5000109747052,180.5000062957406A6,6,0,1,1,323.5000109747052,180.5000062957406"></path><path id="kity_path_127" fill="none" stroke="gray"></path></g><path id="node_outline12" fill="none" stroke="none" d="M328.5000112131238,164.5000062957406h113a5,5,0,0,1,5,5v22a5,5,0,0,1,-5,5h-113a5,5,0,0,1,-5,-5v-22a5,5,0,0,1,5,-5z" stroke-width="3"></path><g id="node_text12" fill="black"><text id="kity_text_123" text-rendering="inherit" font-size="12" dy=".8em" y="172.70000626891851" x="333.5000112131238">CubeCamera</text></g><a id="kity_a_128" xlink:href="http://www.yanhuangxueyuan.com/threejs/docs/index.html#api/zh/cameras/CubeCamera" target="_blank" xlink:title="http://www.yanhuangxueyuan.com/threejs/docs/index.html#api/zh/cameras/CubeCamera" style="cursor: pointer;"><path id="kity_path_130" fill="rgba(255, 255, 255, 0)" stroke="none" d="M416.50001242011786,169.5000062212348h16a4,4,0,0,1,4,4v14a4,4,0,0,1,-4,4h-16a4,4,0,0,1,-4,-4v-14a4,4,0,0,1,4,-4z"></path><path id="kity_path_129" fill="#666" stroke="none" d="M431.11401242011783,185.7240062212348h-1.278c-1.668,0,-3.07,-1.07,-3.599,-2.556h4.877c0.707,0,1.278,-0.571,1.278,-1.278V179.3340062212348c0,-0.707,-0.571,-1.278,-1.278,-1.278h-4.877C426.7660124201179,176.5710062212348,428.16801242011786,175.5000062212348,429.83601242011787,175.5000062212348h1.278c2.116,0,3.834,1.716,3.834,3.834V181.89000622123478C434.94801242011783,184.0080062212348,433.2300124201179,185.7240062212348,431.11401242011783,185.7240062212348zM419.6120124201179,180.6120062212348c0,-0.707,0.573,-1.278,1.278,-1.278h7.668c0.707,0,1.278,0.571,1.278,1.278S429.26501242011784,181.89000622123478,428.55801242011785,181.89000622123478H420.89001242011784C420.18501242011786,181.89000622123478,419.6120124201179,181.3190062212348,419.6120124201179,180.6120062212348zM417.05601242011784,179.3340062212348V181.89000622123478c0,0.707,0.573,1.278,1.278,1.278h4.877c-0.528,1.486,-1.932,2.556,-3.599,2.556H418.33401242011786C416.21601242011786,185.7240062212348,414.50001242011786,184.0080062212348,414.50001242011786,181.89000622123478V179.3340062212348C414.50001242011786,177.2160062212348,416.21601242011786,175.5000062212348,418.33401242011786,175.5000062212348h1.278c1.667,0,3.071,1.071,3.599,2.556H418.33401242011786C417.6290124201179,178.0560062212348,417.05601242011784,178.6270062212348,417.05601242011784,179.3340062212348z"></path></a></g><g id="minder_node9" opacity="1"><g id="node_expander8" style="cursor: pointer;" display="none"><path id="kity_path_101" fill="white" stroke="gray" d="M406.5000122115016,245.50000726431608A6,6,0,1,1,394.5000122115016,245.50000726431608A6,6,0,1,1,406.5000122115016,245.50000726431608"></path><path id="kity_path_102" fill="none" stroke="gray"></path></g><path id="node_outline9" fill="none" stroke="none" d="M411.5000124499202,234.50000726431608h175a5,5,0,0,1,5,5v12a5,5,0,0,1,-5,5h-175a5,5,0,0,1,-5,-5v-12a5,5,0,0,1,5,-5z" stroke-width="3"></path><g id="node_text9" fill="black"><text id="kity_text_98" text-rendering="inherit" font-size="12" dy=".8em" y="237.700007237494" x="416.5000124499202">视图矩阵.matrixWorldInverse</text></g></g><g id="minder_node10" opacity="1"><g id="node_expander9" style="cursor: pointer;" display="none"><path id="kity_path_109" fill="white" stroke="gray" d="M406.5000122115016,297.50000803917646A6,6,0,1,1,394.5000122115016,297.50000803917646A6,6,0,1,1,406.5000122115016,297.50000803917646"></path><path id="kity_path_110" fill="none" stroke="gray"></path></g><path id="node_outline10" fill="none" stroke="none" d="M411.5000124499202,286.50000803917646h157a5,5,0,0,1,5,5v12a5,5,0,0,1,-5,5h-157a5,5,0,0,1,-5,-5v-12a5,5,0,0,1,5,-5z" stroke-width="3"></path><g id="node_text10" fill="black"><text id="kity_text_106" text-rendering="inherit" font-size="12" dy=".8em" y="289.7000080123544" x="416.5000124499202">投影矩阵.projectionMatrix</text></g></g><g id="minder_node8" opacity="1"><g id="node_expander7" style="cursor: pointer;"><path id="kity_path_93" fill="white" stroke="gray" d="M351.50001139193773,273.5000076815486A6,6,0,1,1,339.50001139193773,273.5000076815486A6,6,0,1,1,351.50001139193773,273.5000076815486"></path><path id="kity_path_94" fill="none" stroke="gray" d="M341.00001139193773,273.5000076815486L350.00001139193773,273.5000076815486"></path></g><path id="node_outline8" fill="none" stroke="none" d="M356.5000116303563,262.5000076815486h36a5,5,0,0,1,5,5v12a5,5,0,0,1,-5,5h-36a5,5,0,0,1,-5,-5v-12a5,5,0,0,1,5,-5z" stroke-width="3"></path><g id="node_text8" fill="black"><text id="kity_text_90" text-rendering="inherit" font-size="12" dy=".8em" y="265.7000076547265" x="361.5000116303563">属性</text></g></g></g></g></svg>