<svg id="kity_svg_6" xmlns="http://www.w3.org/2000/svg" xmlns:xlink="http://www.w3.org/1999/xlink" version="1.1" width="580" height="284" style="background: rgb(251, 251, 251); visibility: visible;" viewBox="0 0 580 284"><defs id="kity_defs_7"><linearGradient id="kity_linearGradient_17" x1="0" y1="0" x2="0" y2="1"><stop id="kity_stop_18" offset="0" stop-color="rgb(255, 255, 255)"></stop><stop id="kity_stop_19" offset="1" stop-color="rgb(204, 204, 204)"></stop></linearGradient><marker id="kity_marker_2" orient="auto" refX="6" refY="0" viewBox="-7 -7 14 14" markerWidth="7" markerHeight="7" markerUnits="userSpaceOnUse"><path id="kity_path_3" fill="rgb(115, 161, 191)" stroke="none" d="M6,0A6,6,0,1,1,-6,0A6,6,0,1,1,6,0"></path></marker></defs><g id="kity_g_8"><g id="minder1" text-rendering="optimize-speed"><g id="minder_connect_group1"><path id="kity_path_31" fill="none" stroke="rgb(115, 161, 191)" stroke-width="1" d="M76.5,95.5A86,67,0,0,0,162.5,162.5"></path><path id="kity_path_39" fill="none" stroke="rgb(115, 161, 191)" stroke-width="1" d="M76.5,95.5A86,62,0,0,1,162.5,33.5"></path><path id="kity_path_124" fill="none" stroke="rgb(115, 161, 191)" stroke-width="1" d="M374.5,33.5C394.5,33.5,394.5,33.5,414.5,33.5"></path><path id="kity_path_125" fill="none" stroke="rgb(115, 161, 191)" stroke-width="1" d="M289.5,33.5C309.5,33.5,309.5,33.5,329.5,33.5"></path><path id="kity_path_126" fill="none" stroke="rgb(115, 161, 191)" stroke-width="1" d="M373.5,97.5C393.5,97.5,393.5,97.5,413.5,97.5"></path><path id="kity_path_127" fill="none" stroke="rgb(115, 161, 191)" stroke-width="1" d="M275.5,162.5C295.5,162.5,295.5,97.5,315.5,97.5"></path><path id="kity_path_128" fill="none" stroke="rgb(115, 161, 191)" stroke-width="1" d="M361.5,149.5C381.5,149.5,381.5,149.5,401.5,149.5"></path><path id="kity_path_129" fill="none" stroke="rgb(115, 161, 191)" stroke-width="1" d="M275.5,162.5C295.5,162.5,295.5,149.5,315.5,149.5"></path><path id="kity_path_130" fill="none" stroke="rgb(115, 161, 191)" stroke-width="1" d="M361.5,227.5C381.5,227.5,381.5,201.5,401.5,201.5"></path><path id="kity_path_131" fill="none" stroke="rgb(115, 161, 191)" stroke-width="1" d="M361.5,227.5C381.5,227.5,381.5,253.5,401.5,253.5"></path><path id="kity_path_132" fill="none" stroke="rgb(115, 161, 191)" stroke-width="1" d="M275.5,162.5C295.5,162.5,295.5,227.5,315.5,227.5"></path></g><g id="minder_node1"><path id="node_outline1" fill="rgb(115, 161, 191)" stroke="rgb(115, 161, 191)" d="M25.5,75.5h102a5,5,0,0,1,5,5v30a5,5,0,0,1,-5,5h-102a5,5,0,0,1,-5,-5v-30a5,5,0,0,1,5,-5z" stroke-width="3"></path><g id="node_text1" fill="white"><text id="kity_text_22" text-rendering="inherit" font-size="16" dy=".8em" y="85.09999990463257" x="44.5">网格材质</text></g></g><g id="kity_g_14" display="none"><path id="kity_path_15" fill="rgba(0, 92, 153, 0.5)" stroke="none" d="M252.5,-39.5h125v20h-125z"></path><path id="kity_path_16" fill="none" stroke="rgb(0, 76, 128)" d="M252.5,-19.5L377.5,-19.5" stroke-width="1"></path></g><g id="minder_node2" opacity="1"><g id="node_expander1" style="cursor: pointer;"><path id="kity_path_36" fill="white" stroke="gray" d="M163.5,162.5A6,6,0,1,1,151.5,162.5A6,6,0,1,1,163.5,162.5"></path><path id="kity_path_37" fill="none" stroke="gray" d="M153,162.5L162,162.5"></path></g><path id="node_outline2" fill="rgb(238, 243, 246)" stroke="rgb(115, 161, 191)" d="M167.5,149.5h105a3,3,0,0,1,3,3v20a3,3,0,0,1,-3,3h-105a3,3,0,0,1,-3,-3v-20a3,3,0,0,1,3,-3z" stroke-width="1"></path><g id="node_text2" fill="black"><text id="kity_text_33" text-rendering="inherit" font-size="14" dy=".8em" y="153.40000009536743" x="184.5">受光照影响</text></g></g><g id="minder_node3" opacity="1"><g id="node_expander2" style="cursor: pointer;"><path id="kity_path_44" fill="white" stroke="gray" d="M163.5,33.5A6,6,0,1,1,151.5,33.5A6,6,0,1,1,163.5,33.5"></path><path id="kity_path_45" fill="none" stroke="gray" d="M153,33.5L162,33.5"></path></g><path id="node_outline3" fill="rgb(238, 243, 246)" stroke="rgb(115, 161, 191)" d="M167.5,20.5h119a3,3,0,0,1,3,3v20a3,3,0,0,1,-3,3h-119a3,3,0,0,1,-3,-3v-20a3,3,0,0,1,3,-3z" stroke-width="1"></path><g id="node_text3" fill="black"><text id="kity_text_41" text-rendering="inherit" font-size="14" dy=".8em" y="24.40000009536743" x="184.5">不受光照影响</text></g></g><g id="kity_g_12" display="none"><path id="kity_path_13" fill="none" stroke="rgb(66, 94, 112)" d="M255.5,-14.5h119a3,3,0,0,1,3,3v20a3,3,0,0,1,-3,3h-119a3,3,0,0,1,-3,-3v-20a3,3,0,0,1,3,-3z" stroke-width="5"></path></g><g id="minder_node12"><g id="node_expander11" style="cursor: pointer;" display="none"><path id="kity_path_116" fill="white" stroke="gray" d="M414.5,33.5A6,6,0,1,1,402.5,33.5A6,6,0,1,1,414.5,33.5"></path><path id="kity_path_117" fill="none" stroke="gray"></path></g><path id="node_outline12" fill="none" stroke="none" d="M419.5,22.5h118a5,5,0,0,1,5,5v12a5,5,0,0,1,-5,5h-118a5,5,0,0,1,-5,-5v-12a5,5,0,0,1,5,-5z" stroke-width="3"></path><g id="node_text12" fill="black"><text id="kity_text_113" text-rendering="inherit" font-size="12" dy=".8em" y="25.700000047683716" x="424.5">MeshBasicMaterial</text></g></g><g id="minder_node11" opacity="1"><g id="node_expander10" style="cursor: pointer;"><path id="kity_path_110" fill="white" stroke="gray" d="M329.5,33.5A6,6,0,1,1,317.5,33.5A6,6,0,1,1,329.5,33.5"></path><path id="kity_path_111" fill="none" stroke="gray" d="M319,33.5L328,33.5"></path></g><path id="node_outline11" fill="none" stroke="none" d="M334.5,22.5h35a5,5,0,0,1,5,5v12a5,5,0,0,1,-5,5h-35a5,5,0,0,1,-5,-5v-12a5,5,0,0,1,5,-5z" stroke-width="3"></path><g id="node_text11" fill="black"><text id="kity_text_107" text-rendering="inherit" font-size="12" dy=".8em" y="25.700000047683716" x="339.5">基础</text></g></g><g id="minder_node5"><g id="node_expander6" style="cursor: pointer;" display="none"><path id="kity_path_91" fill="white" stroke="gray" d="M413.5,97.5A6,6,0,1,1,401.5,97.5A6,6,0,1,1,413.5,97.5"></path><path id="kity_path_92" fill="none" stroke="gray"></path></g><path id="node_outline7" fill="none" stroke="none" d="M418.5,86.5h137a5,5,0,0,1,5,5v12a5,5,0,0,1,-5,5h-137a5,5,0,0,1,-5,-5v-12a5,5,0,0,1,5,-5z" stroke-width="3"></path><g id="node_text7" fill="black"><text id="kity_text_79" text-rendering="inherit" font-size="12" dy=".8em" y="89.70000004768372" x="423.5">MeshLambertMaterial</text></g></g><g id="minder_node4" opacity="1"><g id="node_expander5" style="cursor: pointer;"><path id="kity_path_76" fill="white" stroke="gray" d="M315.5,97.5A6,6,0,1,1,303.5,97.5A6,6,0,1,1,315.5,97.5"></path><path id="kity_path_77" fill="none" stroke="gray" d="M305,97.5L314,97.5"></path></g><path id="node_outline6" fill="none" stroke="none" d="M320.5,86.5h48a5,5,0,0,1,5,5v12a5,5,0,0,1,-5,5h-48a5,5,0,0,1,-5,-5v-12a5,5,0,0,1,5,-5z" stroke-width="3"></path><g id="node_text6" fill="black"><text id="kity_text_73" text-rendering="inherit" font-size="12" dy=".8em" y="89.70000004768372" x="325.5">漫反射</text></g></g><g id="minder_node7"><g id="node_expander7" style="cursor: pointer;" display="none"><path id="kity_path_94" fill="white" stroke="gray" d="M401.5,149.5A6,6,0,1,1,389.5,149.5A6,6,0,1,1,401.5,149.5"></path><path id="kity_path_95" fill="none" stroke="gray"></path></g><path id="node_outline8" fill="none" stroke="none" d="M406.5,138.5h126a5,5,0,0,1,5,5v12a5,5,0,0,1,-5,5h-126a5,5,0,0,1,-5,-5v-12a5,5,0,0,1,5,-5z" stroke-width="3"></path><g id="node_text8" fill="black"><text id="kity_text_81" text-rendering="inherit" font-size="12" dy=".8em" y="141.70000004768372" x="411.5">MeshPhongMaterial</text></g></g><g id="minder_node6" opacity="1"><g id="node_expander4" style="cursor: pointer;"><path id="kity_path_70" fill="white" stroke="gray" d="M315.5,149.5A6,6,0,1,1,303.5,149.5A6,6,0,1,1,315.5,149.5"></path><path id="kity_path_71" fill="none" stroke="gray" d="M305,149.5L314,149.5"></path></g><path id="node_outline5" fill="none" stroke="none" d="M320.5,138.5h36a5,5,0,0,1,5,5v12a5,5,0,0,1,-5,5h-36a5,5,0,0,1,-5,-5v-12a5,5,0,0,1,5,-5z" stroke-width="3"></path><g id="node_text5" fill="black"><text id="kity_text_67" text-rendering="inherit" font-size="12" dy=".8em" y="141.70000004768372" x="325.5">高光</text></g></g><g id="minder_node9"><g id="node_expander8" style="cursor: pointer;" display="none"><path id="kity_path_97" fill="white" stroke="gray" d="M401.5,201.5A6,6,0,1,1,389.5,201.5A6,6,0,1,1,401.5,201.5"></path><path id="kity_path_98" fill="none" stroke="gray"></path></g><path id="node_outline9" fill="none" stroke="none" d="M406.5,190.5h140a5,5,0,0,1,5,5v12a5,5,0,0,1,-5,5h-140a5,5,0,0,1,-5,-5v-12a5,5,0,0,1,5,-5z" stroke-width="3"></path><g id="node_text9" fill="black"><text id="kity_text_83" text-rendering="inherit" font-size="12" dy=".8em" y="193.70000004768372" x="411.5">MeshStandardMaterial</text></g></g><g id="minder_node10"><g id="node_expander9" style="cursor: pointer;" display="none"><path id="kity_path_100" fill="white" stroke="gray" d="M401.5,253.5A6,6,0,1,1,389.5,253.5A6,6,0,1,1,401.5,253.5"></path><path id="kity_path_101" fill="none" stroke="gray"></path></g><path id="node_outline10" fill="none" stroke="none" d="M406.5,242.5h134a5,5,0,0,1,5,5v12a5,5,0,0,1,-5,5h-134a5,5,0,0,1,-5,-5v-12a5,5,0,0,1,5,-5z" stroke-width="3"></path><g id="node_text10" fill="black"><text id="kity_text_85" text-rendering="inherit" font-size="12" dy=".8em" y="245.70000004768372" x="411.5">MeshPhysicalMaterial</text></g></g><g id="minder_node8" opacity="1"><g id="node_expander3" style="cursor: pointer;"><path id="kity_path_64" fill="white" stroke="gray" d="M315.5,227.5A6,6,0,1,1,303.5,227.5A6,6,0,1,1,315.5,227.5"></path><path id="kity_path_65" fill="none" stroke="gray" d="M305,227.5L314,227.5"></path></g><path id="node_outline4" fill="none" stroke="none" d="M320.5,216.5h36a5,5,0,0,1,5,5v12a5,5,0,0,1,-5,5h-36a5,5,0,0,1,-5,-5v-12a5,5,0,0,1,5,-5z" stroke-width="3"></path><g id="node_text4" fill="black"><text id="kity_text_61" text-rendering="inherit" font-size="12" dy=".8em" y="219.70000004768372" x="325.5">物理</text></g></g></g></g></svg>